G04 DesignSpark PCB Gerber Version 11.0 Build 5877*
G04 #@! TF.Part,Single*
G04 #@! TF.FileFunction,Copper,L2,Bot*
G04 #@! TF.FilePolarity,Positive*
%FSLAX35Y35*%
%MOIN*%
%ADD11C,0.03937*%
G04 #@! TA.AperFunction,ComponentPad*
%ADD15C,0.06000*%
G04 #@! TD.AperFunction*
%ADD12C,0.06890*%
G04 #@! TA.AperFunction,ComponentPad*
%ADD16C,0.08661*%
G04 #@! TA.AperFunction,WasherPad*
%ADD22C,0.11024*%
%ADD23R,0.19685X0.11811*%
G04 #@! TD.AperFunction*
X0Y0D02*
D02*
D11*
X70250Y510250D02*
Y439935D01*
G75*
G02*
X53478Y423163I-16772J0D01*
G01*
X70250Y720250D02*
Y649935D01*
G75*
G02*
X53478Y633163I-16772J0D01*
G01*
X80250Y480250D02*
Y520250D01*
Y690250D02*
Y730250D01*
Y970250D02*
Y899935D01*
G75*
G02*
X63478Y883163I-16772J0D01*
G01*
X90250Y380250D02*
Y370250D01*
Y530250D02*
Y380250D01*
Y740250D02*
Y610250D01*
G75*
G02*
X80250Y600250I-10000J0D01*
G01*
X90250Y940250D02*
Y980250D01*
X100250Y990250D02*
Y860250D01*
G75*
G02*
X90250Y850250I-10000J0D01*
G01*
X106628Y467652D02*
Y496628D01*
G75*
G02*
X110250Y500250I3622J0D01*
G01*
X106628Y677652D02*
Y706628D01*
G75*
G02*
X110250Y710250I3622J0D01*
G01*
X116628Y927652D02*
Y956628D01*
G75*
G02*
X120250Y960250I3622J0D01*
G01*
Y350250D02*
X100250D01*
G75*
G02*
X90250Y360250I0J10000D01*
G01*
Y370250D01*
X120250Y360250D02*
X100250D01*
G75*
G02*
X90250Y370250I0J10000D01*
G01*
X120250D02*
X100250D01*
G75*
G02*
X90250Y380250I0J10000D01*
G01*
X150250Y840250D02*
Y760250D01*
Y850250D02*
G75*
G02*
X160250Y840250I0J-10000D01*
G01*
Y770250D01*
X150250Y860250D02*
G75*
G02*
X170250Y840250I0J-20000D01*
G01*
Y800250D01*
Y510250D02*
Y439935D01*
G75*
G02*
X153478Y423163I-16772J0D01*
G01*
X170250Y720250D02*
Y649935D01*
G75*
G02*
X153478Y633163I-16772J0D01*
G01*
X180250Y480250D02*
Y500250D01*
Y690250D02*
Y710250D01*
Y970250D02*
Y899935D01*
G75*
G02*
X163478Y883163I-16772J0D01*
G01*
X190250Y530250D02*
Y400250D01*
G75*
G02*
X180250Y390250I-10000J0D01*
G01*
X190250Y740250D02*
Y610250D01*
G75*
G02*
X180250Y600250I-10000J0D01*
G01*
X190250Y940250D02*
Y960250D01*
X200250Y990250D02*
Y860250D01*
G75*
G02*
X190250Y850250I-10000J0D01*
G01*
X206628Y467652D02*
Y496628D01*
G75*
G02*
X210250Y500250I3622J0D01*
G01*
X206628Y677652D02*
Y706628D01*
G75*
G02*
X210250Y710250I3622J0D01*
G01*
X216628Y927652D02*
Y956628D01*
G75*
G02*
X220250Y960250I3622J0D01*
G01*
X250250Y750250D02*
Y840250D01*
Y850250D02*
G75*
G02*
X260250Y840250I0J-10000D01*
G01*
Y780250D01*
X250250Y860250D02*
G75*
G02*
X270250Y840250I0J-20000D01*
G01*
Y790250D01*
X280250Y510250D02*
Y439935D01*
G75*
G02*
X263478Y423163I-16772J0D01*
G01*
X280250Y720250D02*
Y649935D01*
G75*
G02*
X263478Y633163I-16772J0D01*
G01*
X280250Y970250D02*
Y899935D01*
G75*
G02*
X263478Y883163I-16772J0D01*
G01*
X290250Y480250D02*
Y500250D01*
Y690250D02*
Y710250D01*
Y940250D02*
Y960250D01*
X300250Y390250D02*
Y380250D01*
Y530250D02*
Y390250D01*
Y600250D02*
Y590250D01*
Y740250D02*
Y600250D01*
Y990250D02*
Y860250D01*
G75*
G02*
X290250Y850250I-10000J0D01*
G01*
X316628Y467652D02*
Y496628D01*
G75*
G02*
X320250Y500250I3622J0D01*
G01*
X316628Y677652D02*
Y706628D01*
G75*
G02*
X320250Y710250I3622J0D01*
G01*
X316628Y927652D02*
Y956628D01*
G75*
G02*
X320250Y960250I3622J0D01*
G01*
X330250Y370250D02*
X310250D01*
G75*
G02*
X300250Y380250I0J10000D01*
G01*
X330250D02*
X310250D01*
G75*
G02*
X300250Y390250I0J10000D01*
G01*
X330250Y580250D02*
X310250D01*
G75*
G02*
X300250Y590250I0J10000D01*
G01*
X330250D02*
X310250D01*
G75*
G02*
X300250Y600250I0J10000D01*
G01*
X380250Y510250D02*
Y439935D01*
G75*
G02*
X363478Y423163I-16772J0D01*
G01*
X380250Y720250D02*
Y649935D01*
G75*
G02*
X363478Y633163I-16772J0D01*
G01*
X380250Y970250D02*
Y899935D01*
G75*
G02*
X363478Y883163I-16772J0D01*
G01*
X390250Y480250D02*
Y500250D01*
Y690250D02*
Y710250D01*
Y940250D02*
Y960250D01*
X400250Y530250D02*
Y400250D01*
G75*
G02*
X390250Y390250I-10000J0D01*
G01*
X400250Y740250D02*
Y610250D01*
G75*
G02*
X390250Y600250I-10000J0D01*
G01*
X400250Y990250D02*
Y860250D01*
G75*
G02*
X390250Y850250I-10000J0D01*
G01*
X416628Y467652D02*
Y506628D01*
G75*
G02*
X420250Y510250I3622J0D01*
G01*
X416628Y677652D02*
Y716628D01*
G75*
G02*
X420250Y720250I3622J0D01*
G01*
X416628Y927652D02*
Y966628D01*
G75*
G02*
X420250Y970250I3622J0D01*
G01*
X450250Y350250D02*
Y460250D01*
Y350250D02*
Y170250D01*
Y460250D02*
Y560250D01*
Y1000250D01*
X460250Y180250D02*
Y170250D01*
Y280250D02*
Y180250D01*
Y320250D02*
Y280250D01*
Y790250D02*
Y320250D01*
Y1000250D02*
Y790250D01*
X470250Y190250D02*
Y290250D01*
Y190250D02*
Y170250D01*
Y290250D02*
Y330250D01*
Y800250D01*
Y1000250D01*
X480250Y200250D02*
Y170250D01*
Y300250D02*
Y200250D01*
Y340250D02*
Y300250D01*
Y810250D02*
Y340250D01*
Y1000250D02*
Y810250D01*
X490250Y240250D02*
Y340250D01*
Y240250D02*
Y170250D01*
Y340250D02*
Y370250D01*
Y380250D01*
Y430250D01*
Y540250D01*
Y760250D01*
Y1000250D02*
Y760250D01*
X500250Y550250D02*
Y170250D01*
Y750250D02*
Y550250D01*
Y750250D02*
Y1000250D01*
X510250Y170250D02*
Y350250D01*
Y360250D02*
Y500250D01*
Y360250D02*
Y350250D01*
Y500250D02*
Y780250D01*
Y1000250D02*
Y780250D01*
X520250Y650250D02*
Y170250D01*
Y650250D02*
Y770250D01*
Y1000250D02*
Y770250D01*
X530250Y330250D02*
Y450250D01*
Y330250D02*
Y170250D01*
Y450250D02*
Y1000250D01*
X540250Y580250D02*
Y170250D01*
Y680250D02*
Y1000250D01*
Y680250D02*
Y580250D01*
X550250Y590250D02*
Y170250D01*
Y590250D02*
Y850250D01*
Y1000250D01*
X560250Y170250D02*
Y240250D01*
Y470250D02*
Y240250D01*
Y570250D02*
Y470250D01*
Y1000250D02*
Y570250D01*
X570250Y320250D02*
Y170250D01*
Y820250D02*
Y320250D01*
Y820250D02*
Y860250D01*
Y1000250D02*
Y860250D01*
X580250Y170250D02*
Y530250D01*
Y640250D01*
Y740250D01*
Y820250D01*
Y990250D02*
Y820250D01*
Y990250D02*
Y1000250D01*
X590250Y170250D02*
Y310250D01*
Y520250D02*
Y310250D01*
Y730250D02*
Y520250D01*
Y730250D02*
Y980250D01*
Y1000250D02*
Y980250D01*
X600250Y250250D02*
Y170250D01*
Y250250D02*
Y630250D01*
Y810250D01*
Y980250D01*
Y1000250D01*
X610250Y510250D02*
Y170250D01*
Y510250D02*
Y720250D01*
Y970250D01*
Y1000250D01*
X620250Y170250D02*
Y620250D01*
Y800250D01*
Y970250D01*
Y1000250D02*
Y970250D01*
X630250Y660250D02*
Y520250D01*
G75*
G03*
X640250Y510250I10000J0D01*
G01*
X650250D01*
X630250Y830250D02*
Y700250D01*
G75*
G03*
X640250Y690250I10000J0D01*
G01*
Y680250D02*
G75*
G03*
X650250Y670250I10000J0D01*
G01*
X700250D01*
G75*
G03*
X710250Y680250I0J10000D01*
G01*
Y690250D01*
G75*
G02*
X720250Y700250I10000J0D01*
G01*
X730250D01*
G75*
G02*
X740250Y690250I0J-10000D01*
G01*
X640250Y850250D02*
G75*
G03*
X650250Y840250I10000J0D01*
G01*
X700250D01*
G75*
G03*
X710250Y850250I0J10000D01*
G01*
Y860250D01*
G75*
G02*
X720250Y870250I10000J0D01*
G01*
X730250D01*
G75*
G02*
X740250Y860250I0J-10000D01*
G01*
X650250Y510250D02*
X660250D01*
Y500250D02*
G75*
G03*
X650250Y510250I-10000J0D01*
G01*
X670250Y800250D02*
Y729935D01*
G75*
G02*
X653478Y713163I-16772J0D01*
G01*
X670250Y970250D02*
Y899935D01*
G75*
G02*
X653478Y883163I-16772J0D01*
G01*
X680250Y590250D02*
Y630250D01*
Y770250D02*
Y810250D01*
Y940250D02*
Y980250D01*
X690250Y620250D02*
Y510250D01*
G75*
G03*
X700250Y500250I10000J0D01*
G01*
X690250Y820250D02*
Y690250D01*
G75*
G02*
X680250Y680250I-10000J0D01*
G01*
X690250Y990250D02*
Y860250D01*
G75*
G02*
X680250Y850250I-10000J0D01*
G01*
X706628Y577652D02*
Y606628D01*
G75*
G02*
X710250Y610250I3622J0D01*
G01*
X706628Y757652D02*
Y786628D01*
G75*
G02*
X710250Y790250I3622J0D01*
G01*
X706628Y927652D02*
Y956628D01*
G75*
G02*
X710250Y960250I3622J0D01*
G01*
X740250Y680250D02*
G75*
G03*
X750250Y670250I10000J0D01*
G01*
X800250D01*
G75*
G03*
X810250Y680250I0J10000D01*
G01*
Y690250D01*
G75*
G02*
X820250Y700250I10000J0D01*
G01*
X830250D01*
G75*
G02*
X840250Y690250I0J-10000D01*
G01*
X740250Y850250D02*
G75*
G03*
X750250Y840250I10000J0D01*
G01*
X800250D01*
G75*
G03*
X810250Y850250I0J10000D01*
G01*
Y860250D01*
G75*
G02*
X820250Y870250I10000J0D01*
G01*
X830250D01*
G75*
G02*
X840250Y860250I0J-10000D01*
G01*
X770250Y620250D02*
Y549935D01*
G75*
G02*
X753478Y533163I-16772J0D01*
G01*
X770250Y800250D02*
Y729935D01*
G75*
G02*
X753478Y713163I-16772J0D01*
G01*
X770250Y970250D02*
Y899935D01*
G75*
G02*
X753478Y883163I-16772J0D01*
G01*
X780250Y590250D02*
Y610250D01*
Y770250D02*
Y790250D01*
Y940250D02*
Y960250D01*
X790250Y640250D02*
Y480250D01*
Y820250D02*
Y690250D01*
G75*
G02*
X780250Y680250I-10000J0D01*
G01*
X790250Y990250D02*
Y860250D01*
G75*
G02*
X780250Y850250I-10000J0D01*
G01*
X806628Y577652D02*
Y606628D01*
G75*
G02*
X810250Y610250I3622J0D01*
G01*
X806628Y757652D02*
Y786628D01*
G75*
G02*
X810250Y790250I3622J0D01*
G01*
X806628Y927652D02*
Y956628D01*
G75*
G02*
X810250Y960250I3622J0D01*
G01*
X820250Y460250D02*
X800250D01*
G75*
G02*
X790250Y470250I0J10000D01*
G01*
Y480250D01*
X820250Y470250D02*
X800250D01*
G75*
G02*
X790250Y480250I0J10000D01*
G01*
X840250Y680250D02*
G75*
G03*
X850250Y670250I10000J0D01*
G01*
X1000250D01*
G75*
G03*
X1010250Y680250I0J10000D01*
G01*
Y690250D01*
G75*
G02*
X1020250Y700250I10000J0D01*
G01*
G75*
G03*
X1030250Y710250I0J10000D01*
G01*
X840250Y850250D02*
G75*
G03*
X850250Y840250I10000J0D01*
G01*
X1000250D01*
G75*
G03*
X1010250Y850250I0J10000D01*
G01*
Y860250D01*
G75*
G02*
X1020250Y870250I10000J0D01*
G01*
G75*
G03*
X1030250Y880250I0J10000D01*
G01*
X870250Y620250D02*
Y549935D01*
G75*
G02*
X853478Y533163I-16772J0D01*
G01*
X870250Y800250D02*
Y729935D01*
G75*
G02*
X853478Y713163I-16772J0D01*
G01*
X870250Y970250D02*
Y899935D01*
G75*
G02*
X853478Y883163I-16772J0D01*
G01*
X880250Y590250D02*
Y610250D01*
Y770250D02*
Y790250D01*
Y940250D02*
Y960250D01*
X890250Y640250D02*
Y510250D01*
G75*
G02*
X880250Y500250I-10000J0D01*
G01*
X890250Y820250D02*
Y690250D01*
G75*
G02*
X880250Y680250I-10000J0D01*
G01*
X890250Y990250D02*
Y860250D01*
G75*
G02*
X880250Y850250I-10000J0D01*
G01*
X906628Y577652D02*
Y606628D01*
G75*
G02*
X910250Y610250I3622J0D01*
G01*
X906628Y757652D02*
Y786628D01*
G75*
G02*
X910250Y790250I3622J0D01*
G01*
X906628Y927652D02*
Y956628D01*
G75*
G02*
X910250Y960250I3622J0D01*
G01*
X960250Y420250D02*
Y470250D01*
G75*
G02*
X970250Y480250I10000J0D01*
G01*
X980250D01*
G75*
G03*
X990250Y490250I0J10000D01*
G01*
Y510250D01*
X970250Y800250D02*
Y729935D01*
G75*
G02*
X953478Y713163I-16772J0D01*
G01*
X970250Y970250D02*
Y899935D01*
G75*
G02*
X953478Y883163I-16772J0D01*
G01*
X980250Y590250D02*
Y610250D01*
Y770250D02*
Y790250D01*
Y940250D02*
Y960250D01*
X990250Y620250D02*
Y510250D01*
Y820250D02*
Y690250D01*
G75*
G02*
X980250Y680250I-10000J0D01*
G01*
X990250Y990250D02*
Y860250D01*
G75*
G02*
X980250Y850250I-10000J0D01*
G01*
X1000250Y500250D02*
G75*
G02*
X990250Y510250I0J10000D01*
G01*
X1006628Y577652D02*
Y613872D01*
G75*
G03*
X1000250Y620250I-6378J0D01*
G01*
X1006628Y757652D02*
Y796628D01*
G75*
G02*
X1010250Y800250I3622J0D01*
G01*
X1006628Y927652D02*
Y966628D01*
G75*
G02*
X1010250Y970250I3622J0D01*
G01*
D02*
D12*
X20250Y510250D03*
Y520250D03*
Y530250D03*
X30250Y720250D03*
Y730250D03*
Y740250D03*
X70250Y510250D03*
Y720250D03*
X80250Y520250D03*
Y730250D03*
Y970250D03*
X90250Y530250D03*
Y740250D03*
Y980250D03*
X100250Y990250D03*
X110250Y500250D03*
Y710250D03*
X120250Y960250D03*
X150250Y760250D03*
X160250Y770250D03*
X170250Y510250D03*
Y720250D03*
Y800250D03*
X180250Y500250D03*
Y710250D03*
Y970250D03*
X190250Y530250D03*
Y740250D03*
Y960250D03*
X200250Y990250D03*
X210250Y500250D03*
Y710250D03*
X220250Y960250D03*
X250250Y750250D03*
X260250Y780250D03*
X270250Y790250D03*
X280250Y510250D03*
Y720250D03*
Y970250D03*
X290250Y500250D03*
Y710250D03*
Y960250D03*
X300250Y530250D03*
Y740250D03*
Y990250D03*
X320250Y500250D03*
Y710250D03*
Y960250D03*
X380250Y510250D03*
Y720250D03*
Y970250D03*
X390250Y500250D03*
Y710250D03*
Y960250D03*
X400250Y530250D03*
Y740250D03*
Y990250D03*
X420250Y510250D03*
Y720250D03*
Y970250D03*
X450250Y170250D03*
Y350250D03*
Y460250D03*
Y560250D03*
Y1000250D03*
X460250Y170250D03*
Y180250D03*
Y280250D03*
Y320250D03*
Y790250D03*
Y1000250D03*
X470250Y170250D03*
Y190250D03*
Y290250D03*
Y330250D03*
Y800250D03*
Y1000250D03*
X480250Y170250D03*
Y200250D03*
Y300250D03*
Y340250D03*
Y810250D03*
Y1000250D03*
X490250Y170250D03*
Y240250D03*
Y340250D03*
Y370250D03*
Y380250D03*
Y430250D03*
Y540250D03*
Y760250D03*
Y1000250D03*
X500250Y170250D03*
Y550250D03*
Y750250D03*
Y1000250D03*
X510250Y170250D03*
Y350250D03*
Y360250D03*
Y500250D03*
Y780250D03*
Y1000250D03*
X520250Y170250D03*
Y650250D03*
Y770250D03*
Y1000250D03*
X530250Y170250D03*
Y330250D03*
Y450250D03*
Y1000250D03*
X540250Y170250D03*
Y580250D03*
Y680250D03*
Y1000250D03*
X550250Y170250D03*
Y590250D03*
Y850250D03*
Y1000250D03*
X560250Y170250D03*
Y240250D03*
Y470250D03*
Y570250D03*
Y1000250D03*
X570250Y170250D03*
Y320250D03*
Y820250D03*
Y860250D03*
Y1000250D03*
X580250Y170250D03*
Y530250D03*
Y640250D03*
Y740250D03*
Y820250D03*
Y990250D03*
Y1000250D03*
X590250Y170250D03*
Y310250D03*
Y520250D03*
Y730250D03*
Y980250D03*
Y1000250D03*
X600250Y170250D03*
Y250250D03*
Y630250D03*
Y810250D03*
Y980250D03*
Y1000250D03*
X610250Y170250D03*
Y510250D03*
Y720250D03*
Y970250D03*
Y1000250D03*
X620250Y170250D03*
Y620250D03*
Y800250D03*
Y970250D03*
Y1000250D03*
X630250Y660250D03*
Y830250D03*
X670250Y800250D03*
Y970250D03*
X680250Y630250D03*
Y810250D03*
Y980250D03*
X690250Y620250D03*
Y820250D03*
Y990250D03*
X710250Y610250D03*
Y790250D03*
Y960250D03*
X770250Y620250D03*
Y800250D03*
Y970250D03*
X780250Y610250D03*
Y790250D03*
Y960250D03*
X790250Y640250D03*
Y820250D03*
Y990250D03*
X810250Y610250D03*
Y790250D03*
Y960250D03*
X820250Y330250D03*
X870250Y620250D03*
Y800250D03*
Y970250D03*
X880250Y610250D03*
Y790250D03*
Y960250D03*
X890250Y640250D03*
Y820250D03*
Y990250D03*
X910250Y610250D03*
Y790250D03*
Y960250D03*
X940250Y330250D03*
X960250Y380250D03*
Y390250D03*
Y400250D03*
Y410250D03*
Y420250D03*
X970250Y800250D03*
Y970250D03*
X980250Y610250D03*
Y790250D03*
Y960250D03*
X990250Y390250D03*
Y400250D03*
Y410250D03*
Y420250D03*
Y620250D03*
Y820250D03*
Y990250D03*
X1000250Y620250D03*
X1010250Y800250D03*
Y970250D03*
X1030250Y620250D03*
Y630250D03*
Y640250D03*
Y710250D03*
Y800250D03*
Y810250D03*
Y820250D03*
Y880250D03*
D02*
D15*
X30250Y350250D03*
Y360250D03*
Y370250D03*
Y380250D03*
Y390250D03*
Y400250D03*
Y480250D03*
Y520250D03*
X40250Y480250D03*
Y520250D03*
Y690250D03*
Y730250D03*
X50250Y480250D03*
Y520250D03*
Y690250D03*
Y730250D03*
Y840250D03*
Y850250D03*
Y860250D03*
Y940250D03*
Y980250D03*
X60250Y380250D03*
Y390250D03*
Y400250D03*
Y940250D03*
Y980250D03*
X70250Y350250D03*
Y360250D03*
Y370250D03*
X80250Y350250D03*
Y360250D03*
Y370250D03*
Y600250D03*
Y610250D03*
Y840250D03*
Y850250D03*
Y860250D03*
X90250Y850250D03*
Y860250D03*
X120250Y350250D03*
Y360250D03*
Y370250D03*
Y600250D03*
Y610250D03*
X130250Y850250D03*
Y860250D03*
X140250Y480250D03*
Y520250D03*
Y690250D03*
Y730250D03*
X150250Y480250D03*
Y520250D03*
Y690250D03*
Y730250D03*
Y840250D03*
Y850250D03*
Y860250D03*
Y940250D03*
Y980250D03*
X160250Y940250D03*
Y980250D03*
X180250Y390250D03*
Y400250D03*
Y600250D03*
Y610250D03*
Y840250D03*
Y850250D03*
Y860250D03*
X190250Y850250D03*
Y860250D03*
X220250Y390250D03*
Y400250D03*
Y600250D03*
Y610250D03*
X230250Y850250D03*
Y860250D03*
X240250Y370250D03*
Y380250D03*
Y390250D03*
Y400250D03*
Y480250D03*
Y520250D03*
Y580250D03*
Y590250D03*
Y600250D03*
Y610250D03*
Y690250D03*
Y730250D03*
X250250Y480250D03*
Y520250D03*
Y690250D03*
Y730250D03*
Y840250D03*
Y850250D03*
Y860250D03*
Y940250D03*
Y980250D03*
X260250Y480250D03*
Y520250D03*
Y690250D03*
Y730250D03*
Y940250D03*
Y980250D03*
X270250Y390250D03*
Y400250D03*
Y600250D03*
Y610250D03*
X280250Y370250D03*
Y380250D03*
Y580250D03*
Y590250D03*
Y840250D03*
Y850250D03*
Y860250D03*
X290250Y370250D03*
Y380250D03*
Y580250D03*
Y590250D03*
Y850250D03*
Y860250D03*
X330250Y370250D03*
Y380250D03*
Y580250D03*
Y590250D03*
Y850250D03*
Y860250D03*
X350250Y480250D03*
Y520250D03*
Y690250D03*
Y730250D03*
Y840250D03*
Y850250D03*
Y860250D03*
Y940250D03*
Y980250D03*
X360250Y480250D03*
Y520250D03*
Y690250D03*
Y730250D03*
Y940250D03*
Y980250D03*
X380250Y840250D03*
Y850250D03*
Y860250D03*
X390250Y390250D03*
Y400250D03*
Y600250D03*
Y610250D03*
Y850250D03*
Y860250D03*
X430250Y390250D03*
Y400250D03*
Y600250D03*
Y610250D03*
Y850250D03*
Y860250D03*
X640250Y590250D03*
Y630250D03*
Y680250D03*
Y690250D03*
Y770250D03*
Y810250D03*
Y850250D03*
Y860250D03*
Y940250D03*
Y980250D03*
X650250Y280250D03*
Y290250D03*
Y300250D03*
Y320250D03*
Y330250D03*
Y340250D03*
Y350250D03*
Y590250D03*
Y630250D03*
Y770250D03*
Y810250D03*
Y940250D03*
Y980250D03*
X660250Y500250D03*
Y510250D03*
X670250Y680250D03*
Y690250D03*
Y850250D03*
Y860250D03*
X680250Y680250D03*
Y690250D03*
Y850250D03*
Y860250D03*
X690250Y280250D03*
Y290250D03*
Y300250D03*
Y320250D03*
Y330250D03*
Y340250D03*
Y350250D03*
X700250Y500250D03*
Y510250D03*
X720250Y580250D03*
Y620250D03*
Y680250D03*
Y690250D03*
Y850250D03*
Y860250D03*
X730250Y460250D03*
Y470250D03*
Y480250D03*
Y490250D03*
Y590250D03*
Y630250D03*
X740250Y590250D03*
Y630250D03*
Y680250D03*
Y690250D03*
Y770250D03*
Y810250D03*
Y850250D03*
Y860250D03*
Y940250D03*
Y980250D03*
X750250Y590250D03*
Y630250D03*
Y770250D03*
Y810250D03*
Y940250D03*
Y980250D03*
X760250Y480250D03*
Y490250D03*
X770250Y460250D03*
Y470250D03*
Y680250D03*
Y690250D03*
Y850250D03*
Y860250D03*
X780250Y460250D03*
Y470250D03*
Y680250D03*
Y690250D03*
Y850250D03*
Y860250D03*
X820250Y460250D03*
Y470250D03*
Y680250D03*
Y690250D03*
Y850250D03*
Y860250D03*
X840250Y590250D03*
Y630250D03*
Y680250D03*
Y690250D03*
Y770250D03*
Y810250D03*
Y850250D03*
Y860250D03*
Y940250D03*
Y980250D03*
X850250Y590250D03*
Y630250D03*
Y770250D03*
Y810250D03*
Y940250D03*
Y980250D03*
X870250Y680250D03*
Y690250D03*
Y850250D03*
Y860250D03*
X880250Y500250D03*
Y510250D03*
Y680250D03*
Y690250D03*
Y850250D03*
Y860250D03*
X920250Y500250D03*
Y510250D03*
Y680250D03*
Y690250D03*
Y850250D03*
Y860250D03*
X940250Y590250D03*
Y630250D03*
Y680250D03*
Y690250D03*
Y770250D03*
Y810250D03*
Y850250D03*
Y860250D03*
Y940250D03*
Y980250D03*
X950250Y590250D03*
Y630250D03*
Y770250D03*
Y810250D03*
Y940250D03*
Y980250D03*
X960250Y500250D03*
Y510250D03*
X970250Y680250D03*
Y690250D03*
Y850250D03*
Y860250D03*
X980250Y680250D03*
Y690250D03*
Y850250D03*
Y860250D03*
X1000250Y500250D03*
Y510250D03*
X1020250Y580250D03*
Y620250D03*
Y680250D03*
Y690250D03*
Y850250D03*
Y860250D03*
D02*
D16*
X310250Y600250D03*
X320250D03*
D02*
D22*
X45604Y445604D03*
Y655604D03*
X53478Y423163D03*
Y467258D03*
Y633163D03*
Y677258D03*
X55604Y905604D03*
X63478Y883163D03*
Y927258D03*
X80250Y480250D03*
Y690250D03*
X90250Y940250D03*
X106628Y423163D03*
Y467652D03*
Y633163D03*
Y677652D03*
X114896Y445604D03*
Y655604D03*
X116628Y883163D03*
Y927652D03*
X124896Y905604D03*
X145604Y445604D03*
Y655604D03*
X153478Y423163D03*
Y467258D03*
Y633163D03*
Y677258D03*
X155604Y905604D03*
X163478Y883163D03*
Y927258D03*
X180250Y480250D03*
Y690250D03*
X190250Y940250D03*
X206628Y423163D03*
Y467652D03*
Y633163D03*
Y677652D03*
X214896Y445604D03*
Y655604D03*
X216628Y883163D03*
Y927652D03*
X224896Y905604D03*
X255604Y445604D03*
Y655604D03*
Y905604D03*
X263478Y423163D03*
Y467258D03*
Y633163D03*
Y677258D03*
Y883163D03*
Y927258D03*
X290250Y480250D03*
Y690250D03*
Y940250D03*
X316628Y423163D03*
Y467652D03*
Y633163D03*
Y677652D03*
Y883163D03*
Y927652D03*
X324896Y445604D03*
Y655604D03*
Y905604D03*
X355604Y445604D03*
Y655604D03*
Y905604D03*
X363478Y423163D03*
Y467258D03*
Y633163D03*
Y677258D03*
Y883163D03*
Y927258D03*
X390250Y480250D03*
Y690250D03*
Y940250D03*
X416628Y423163D03*
Y467652D03*
Y633163D03*
Y677652D03*
Y883163D03*
Y927652D03*
X424896Y445604D03*
Y655604D03*
Y905604D03*
X645604Y555604D03*
Y735604D03*
Y905604D03*
X653478Y533163D03*
Y577258D03*
Y713163D03*
Y757258D03*
Y883163D03*
Y927258D03*
X680250Y590250D03*
Y770250D03*
Y940250D03*
X706628Y533163D03*
Y577652D03*
Y713163D03*
Y757652D03*
Y883163D03*
Y927652D03*
X714896Y555604D03*
Y735604D03*
Y905604D03*
X745604Y555604D03*
Y735604D03*
Y905604D03*
X753478Y533163D03*
Y577258D03*
Y713163D03*
Y757258D03*
Y883163D03*
Y927258D03*
X780250Y590250D03*
Y770250D03*
Y940250D03*
X806628Y533163D03*
Y577652D03*
Y713163D03*
Y757652D03*
Y883163D03*
Y927652D03*
X814896Y555604D03*
Y735604D03*
Y905604D03*
X845604Y555604D03*
Y735604D03*
Y905604D03*
X853478Y533163D03*
Y577258D03*
Y713163D03*
Y757258D03*
Y883163D03*
Y927258D03*
X880250Y590250D03*
Y770250D03*
Y940250D03*
X906628Y533163D03*
Y577652D03*
Y713163D03*
Y757652D03*
Y883163D03*
Y927652D03*
X914896Y555604D03*
Y735604D03*
Y905604D03*
X945604Y555604D03*
Y735604D03*
Y905604D03*
X953478Y533163D03*
Y577258D03*
Y713163D03*
Y757258D03*
Y883163D03*
Y927258D03*
X980250Y590250D03*
Y770250D03*
Y940250D03*
X1006628Y533163D03*
Y577652D03*
Y713163D03*
Y757652D03*
Y883163D03*
Y927652D03*
X1014896Y555604D03*
Y735604D03*
Y905604D03*
D02*
D23*
X60250Y220250D03*
Y260250D03*
Y290250D03*
X160250Y220250D03*
Y260250D03*
Y290250D03*
X260250Y220250D03*
Y260250D03*
Y290250D03*
X380250Y220250D03*
Y260250D03*
Y290250D03*
X800250Y220250D03*
Y260250D03*
Y290250D03*
X830250Y220250D03*
Y260250D03*
Y290250D03*
X0Y0D02*
M02*
