G05
M48
;#@! TF.GenerationSoftware,DesignSpark,DesignSpark PCB,11.0.5875
;#@! TF.CreationDate,2023-12-03T01:28:00+06:00*
;#@! TF.FileFunction,Plated,1,2,PTH
;FILE_FORMAT=3:5
;TYPE=PLATED
INCH,TZ
FMAT,2
T1C000.03200
T2C000.03500
T3C000.03543
T4C000.05118
%
T001
X0.30250Y3.50250
X0.30250Y3.60250
X0.30250Y3.70250
X0.30250Y3.80250
X0.30250Y3.90250
X0.30250Y4.00250
X0.30250Y4.80250
X0.30250Y5.20250
X0.40250Y4.80250
X0.40250Y5.20250
X0.40250Y6.90250
X0.40250Y7.30250
X0.50250Y4.80250
X0.50250Y5.20250
X0.50250Y6.90250
X0.50250Y7.30250
X0.50250Y8.40250
X0.50250Y8.50250
X0.50250Y8.60250
X0.50250Y9.40250
X0.50250Y9.80250
X0.60250Y3.80250
X0.60250Y3.90250
X0.60250Y4.00250
X0.60250Y9.40250
X0.60250Y9.80250
X0.70250Y3.50250
X0.70250Y3.60250
X0.70250Y3.70250
X0.80250Y3.50250
X0.80250Y3.60250
X0.80250Y3.70250
X0.80250Y6.00250
X0.80250Y6.10250
X0.80250Y8.40250
X0.80250Y8.50250
X0.80250Y8.60250
X0.90250Y8.50250
X0.90250Y8.60250
X1.20250Y3.50250
X1.20250Y3.60250
X1.20250Y3.70250
X1.20250Y6.00250
X1.20250Y6.10250
X1.30250Y8.50250
X1.30250Y8.60250
X1.40250Y4.80250
X1.40250Y5.20250
X1.40250Y6.90250
X1.40250Y7.30250
X1.50250Y4.80250
X1.50250Y5.20250
X1.50250Y6.90250
X1.50250Y7.30250
X1.50250Y8.40250
X1.50250Y8.50250
X1.50250Y8.60250
X1.50250Y9.40250
X1.50250Y9.80250
X1.60250Y9.40250
X1.60250Y9.80250
X1.80250Y3.90250
X1.80250Y4.00250
X1.80250Y6.00250
X1.80250Y6.10250
X1.80250Y8.40250
X1.80250Y8.50250
X1.80250Y8.60250
X1.90250Y8.50250
X1.90250Y8.60250
X2.20250Y3.90250
X2.20250Y4.00250
X2.20250Y6.00250
X2.20250Y6.10250
X2.30250Y8.50250
X2.30250Y8.60250
X2.40250Y3.70250
X2.40250Y3.80250
X2.40250Y3.90250
X2.40250Y4.00250
X2.40250Y4.80250
X2.40250Y5.20250
X2.40250Y5.80250
X2.40250Y5.90250
X2.40250Y6.00250
X2.40250Y6.10250
X2.40250Y6.90250
X2.40250Y7.30250
X2.50250Y4.80250
X2.50250Y5.20250
X2.50250Y6.90250
X2.50250Y7.30250
X2.50250Y8.40250
X2.50250Y8.50250
X2.50250Y8.60250
X2.50250Y9.40250
X2.50250Y9.80250
X2.60250Y4.80250
X2.60250Y5.20250
X2.60250Y6.90250
X2.60250Y7.30250
X2.60250Y9.40250
X2.60250Y9.80250
X2.70250Y3.90250
X2.70250Y4.00250
X2.70250Y6.00250
X2.70250Y6.10250
X2.80250Y3.70250
X2.80250Y3.80250
X2.80250Y5.80250
X2.80250Y5.90250
X2.80250Y8.40250
X2.80250Y8.50250
X2.80250Y8.60250
X2.90250Y3.70250
X2.90250Y3.80250
X2.90250Y5.80250
X2.90250Y5.90250
X2.90250Y8.50250
X2.90250Y8.60250
X3.30250Y3.70250
X3.30250Y3.80250
X3.30250Y5.80250
X3.30250Y5.90250
X3.30250Y8.50250
X3.30250Y8.60250
X3.50250Y4.80250
X3.50250Y5.20250
X3.50250Y6.90250
X3.50250Y7.30250
X3.50250Y8.40250
X3.50250Y8.50250
X3.50250Y8.60250
X3.50250Y9.40250
X3.50250Y9.80250
X3.60250Y4.80250
X3.60250Y5.20250
X3.60250Y6.90250
X3.60250Y7.30250
X3.60250Y9.40250
X3.60250Y9.80250
X3.80250Y8.40250
X3.80250Y8.50250
X3.80250Y8.60250
X3.90250Y3.90250
X3.90250Y4.00250
X3.90250Y6.00250
X3.90250Y6.10250
X3.90250Y8.50250
X3.90250Y8.60250
X4.30250Y3.90250
X4.30250Y4.00250
X4.30250Y6.00250
X4.30250Y6.10250
X4.30250Y8.50250
X4.30250Y8.60250
X6.40250Y5.90250
X6.40250Y6.30250
X6.40250Y6.80250
X6.40250Y6.90250
X6.40250Y7.70250
X6.40250Y8.10250
X6.40250Y8.50250
X6.40250Y8.60250
X6.40250Y9.40250
X6.40250Y9.80250
X6.50250Y2.80250
X6.50250Y2.90250
X6.50250Y3.00250
X6.50250Y3.20250
X6.50250Y3.30250
X6.50250Y3.40250
X6.50250Y3.50250
X6.50250Y5.90250
X6.50250Y6.30250
X6.50250Y7.70250
X6.50250Y8.10250
X6.50250Y9.40250
X6.50250Y9.80250
X6.60250Y5.00250
X6.60250Y5.10250
X6.70250Y6.80250
X6.70250Y6.90250
X6.70250Y8.50250
X6.70250Y8.60250
X6.80250Y6.80250
X6.80250Y6.90250
X6.80250Y8.50250
X6.80250Y8.60250
X6.90250Y2.80250
X6.90250Y2.90250
X6.90250Y3.00250
X6.90250Y3.20250
X6.90250Y3.30250
X6.90250Y3.40250
X6.90250Y3.50250
X7.00250Y5.00250
X7.00250Y5.10250
X7.20250Y5.80250
X7.20250Y6.20250
X7.20250Y6.80250
X7.20250Y6.90250
X7.20250Y8.50250
X7.20250Y8.60250
X7.30250Y4.60250
X7.30250Y4.70250
X7.30250Y4.80250
X7.30250Y4.90250
X7.30250Y5.90250
X7.30250Y6.30250
X7.40250Y5.90250
X7.40250Y6.30250
X7.40250Y6.80250
X7.40250Y6.90250
X7.40250Y7.70250
X7.40250Y8.10250
X7.40250Y8.50250
X7.40250Y8.60250
X7.40250Y9.40250
X7.40250Y9.80250
X7.50250Y5.90250
X7.50250Y6.30250
X7.50250Y7.70250
X7.50250Y8.10250
X7.50250Y9.40250
X7.50250Y9.80250
X7.60250Y4.80250
X7.60250Y4.90250
X7.70250Y4.60250
X7.70250Y4.70250
X7.70250Y6.80250
X7.70250Y6.90250
X7.70250Y8.50250
X7.70250Y8.60250
X7.80250Y4.60250
X7.80250Y4.70250
X7.80250Y6.80250
X7.80250Y6.90250
X7.80250Y8.50250
X7.80250Y8.60250
X8.20250Y4.60250
X8.20250Y4.70250
X8.20250Y6.80250
X8.20250Y6.90250
X8.20250Y8.50250
X8.20250Y8.60250
X8.40250Y5.90250
X8.40250Y6.30250
X8.40250Y6.80250
X8.40250Y6.90250
X8.40250Y7.70250
X8.40250Y8.10250
X8.40250Y8.50250
X8.40250Y8.60250
X8.40250Y9.40250
X8.40250Y9.80250
X8.50250Y5.90250
X8.50250Y6.30250
X8.50250Y7.70250
X8.50250Y8.10250
X8.50250Y9.40250
X8.50250Y9.80250
X8.70250Y6.80250
X8.70250Y6.90250
X8.70250Y8.50250
X8.70250Y8.60250
X8.80250Y5.00250
X8.80250Y5.10250
X8.80250Y6.80250
X8.80250Y6.90250
X8.80250Y8.50250
X8.80250Y8.60250
X9.20250Y5.00250
X9.20250Y5.10250
X9.20250Y6.80250
X9.20250Y6.90250
X9.20250Y8.50250
X9.20250Y8.60250
X9.40250Y5.90250
X9.40250Y6.30250
X9.40250Y6.80250
X9.40250Y6.90250
X9.40250Y7.70250
X9.40250Y8.10250
X9.40250Y8.50250
X9.40250Y8.60250
X9.40250Y9.40250
X9.40250Y9.80250
X9.50250Y5.90250
X9.50250Y6.30250
X9.50250Y7.70250
X9.50250Y8.10250
X9.50250Y9.40250
X9.50250Y9.80250
X9.60250Y5.00250
X9.60250Y5.10250
X9.70250Y6.80250
X9.70250Y6.90250
X9.70250Y8.50250
X9.70250Y8.60250
X9.80250Y6.80250
X9.80250Y6.90250
X9.80250Y8.50250
X9.80250Y8.60250
X10.00250Y5.00250
X10.00250Y5.10250
X10.20250Y5.80250
X10.20250Y6.20250
X10.20250Y6.80250
X10.20250Y6.90250
X10.20250Y8.50250
X10.20250Y8.60250
T002
X0.20250Y5.10250
X0.20250Y5.20250
X0.20250Y5.30250
X0.30250Y7.20250
X0.30250Y7.30250
X0.30250Y7.40250
X0.70250Y5.10250
X0.70250Y7.20250
X0.80250Y5.20250
X0.80250Y7.30250
X0.80250Y9.70250
X0.90250Y5.30250
X0.90250Y7.40250
X0.90250Y9.80250
X1.00250Y9.90250
X1.10250Y5.00250
X1.10250Y7.10250
X1.20250Y9.60250
X1.50250Y7.60250
X1.60250Y7.70250
X1.70250Y5.10250
X1.70250Y7.20250
X1.70250Y8.00250
X1.80250Y5.00250
X1.80250Y7.10250
X1.80250Y9.70250
X1.90250Y5.30250
X1.90250Y7.40250
X1.90250Y9.60250
X2.00250Y9.90250
X2.10250Y5.00250
X2.10250Y7.10250
X2.20250Y9.60250
X2.50250Y7.50250
X2.60250Y7.80250
X2.70250Y7.90250
X2.80250Y5.10250
X2.80250Y7.20250
X2.80250Y9.70250
X2.90250Y5.00250
X2.90250Y7.10250
X2.90250Y9.60250
X3.00250Y5.30250
X3.00250Y7.40250
X3.00250Y9.90250
X3.20250Y5.00250
X3.20250Y7.10250
X3.20250Y9.60250
X3.80250Y5.10250
X3.80250Y7.20250
X3.80250Y9.70250
X3.90250Y5.00250
X3.90250Y7.10250
X3.90250Y9.60250
X4.00250Y5.30250
X4.00250Y7.40250
X4.00250Y9.90250
X4.20250Y5.10250
X4.20250Y7.20250
X4.20250Y9.70250
X4.50250Y1.70250
X4.50250Y3.50250
X4.50250Y4.60250
X4.50250Y5.60250
X4.50250Y10.00250
X4.60250Y1.70250
X4.60250Y1.80250
X4.60250Y2.80250
X4.60250Y3.20250
X4.60250Y7.90250
X4.60250Y10.00250
X4.70250Y1.70250
X4.70250Y1.90250
X4.70250Y2.90250
X4.70250Y3.30250
X4.70250Y8.00250
X4.70250Y10.00250
X4.80250Y1.70250
X4.80250Y2.00250
X4.80250Y3.00250
X4.80250Y3.40250
X4.80250Y8.10250
X4.80250Y10.00250
X4.90250Y1.70250
X4.90250Y2.40250
X4.90250Y3.40250
X4.90250Y3.70250
X4.90250Y3.80250
X4.90250Y4.30250
X4.90250Y5.40250
X4.90250Y7.60250
X4.90250Y10.00250
X5.00250Y1.70250
X5.00250Y5.50250
X5.00250Y7.50250
X5.00250Y10.00250
X5.10250Y1.70250
X5.10250Y3.50250
X5.10250Y3.60250
X5.10250Y5.00250
X5.10250Y7.80250
X5.10250Y10.00250
X5.20250Y1.70250
X5.20250Y6.50250
X5.20250Y7.70250
X5.20250Y10.00250
X5.30250Y1.70250
X5.30250Y3.30250
X5.30250Y4.50250
X5.30250Y10.00250
X5.40250Y1.70250
X5.40250Y5.80250
X5.40250Y6.80250
X5.40250Y10.00250
X5.50250Y1.70250
X5.50250Y5.90250
X5.50250Y8.50250
X5.50250Y10.00250
X5.60250Y1.70250
X5.60250Y2.40250
X5.60250Y4.70250
X5.60250Y5.70250
X5.60250Y10.00250
X5.70250Y1.70250
X5.70250Y3.20250
X5.70250Y8.20250
X5.70250Y8.60250
X5.70250Y10.00250
X5.80250Y1.70250
X5.80250Y5.30250
X5.80250Y6.40250
X5.80250Y7.40250
X5.80250Y8.20250
X5.80250Y9.90250
X5.80250Y10.00250
X5.90250Y1.70250
X5.90250Y3.10250
X5.90250Y5.20250
X5.90250Y7.30250
X5.90250Y9.80250
X5.90250Y10.00250
X6.00250Y1.70250
X6.00250Y2.50250
X6.00250Y6.30250
X6.00250Y8.10250
X6.00250Y9.80250
X6.00250Y10.00250
X6.10250Y1.70250
X6.10250Y5.10250
X6.10250Y7.20250
X6.10250Y9.70250
X6.10250Y10.00250
X6.20250Y1.70250
X6.20250Y6.20250
X6.20250Y8.00250
X6.20250Y9.70250
X6.20250Y10.00250
X6.30250Y6.60250
X6.30250Y8.30250
X6.70250Y8.00250
X6.70250Y9.70250
X6.80250Y6.30250
X6.80250Y8.10250
X6.80250Y9.80250
X6.90250Y6.20250
X6.90250Y8.20250
X6.90250Y9.90250
X7.10250Y6.10250
X7.10250Y7.90250
X7.10250Y9.60250
X7.70250Y6.20250
X7.70250Y8.00250
X7.70250Y9.70250
X7.80250Y6.10250
X7.80250Y7.90250
X7.80250Y9.60250
X7.90250Y6.40250
X7.90250Y8.20250
X7.90250Y9.90250
X8.10250Y6.10250
X8.10250Y7.90250
X8.10250Y9.60250
X8.20250Y3.30250
X8.70250Y6.20250
X8.70250Y8.00250
X8.70250Y9.70250
X8.80250Y6.10250
X8.80250Y7.90250
X8.80250Y9.60250
X8.90250Y6.40250
X8.90250Y8.20250
X8.90250Y9.90250
X9.10250Y6.10250
X9.10250Y7.90250
X9.10250Y9.60250
X9.40250Y3.30250
X9.60250Y3.80250
X9.60250Y3.90250
X9.60250Y4.00250
X9.60250Y4.10250
X9.60250Y4.20250
X9.70250Y8.00250
X9.70250Y9.70250
X9.80250Y6.10250
X9.80250Y7.90250
X9.80250Y9.60250
X9.90250Y3.90250
X9.90250Y4.00250
X9.90250Y4.10250
X9.90250Y4.20250
X9.90250Y6.20250
X9.90250Y8.20250
X9.90250Y9.90250
X10.00250Y6.20250
X10.10250Y8.00250
X10.10250Y9.70250
X10.30250Y6.20250
X10.30250Y6.30250
X10.30250Y6.40250
X10.30250Y7.10250
X10.30250Y8.00250
X10.30250Y8.10250
X10.30250Y8.20250
X10.30250Y8.80250
T003
X3.10250Y6.00250
X3.20250Y6.00250
T004
X0.45604Y4.45604
X0.45604Y6.55604
X0.53478Y4.23163
X0.53478Y4.67258
X0.53478Y6.33163
X0.53478Y6.77258
X0.55604Y9.05604
X0.63478Y8.83163
X0.63478Y9.27258
X0.80250Y4.80250
X0.80250Y6.90250
X0.90250Y9.40250
X1.06628Y4.23163
X1.06628Y4.67652
X1.06628Y6.33163
X1.06628Y6.77652
X1.14896Y4.45604
X1.14896Y6.55604
X1.16628Y8.83163
X1.16628Y9.27652
X1.24896Y9.05604
X1.45604Y4.45604
X1.45604Y6.55604
X1.53478Y4.23163
X1.53478Y4.67258
X1.53478Y6.33163
X1.53478Y6.77258
X1.55604Y9.05604
X1.63478Y8.83163
X1.63478Y9.27258
X1.80250Y4.80250
X1.80250Y6.90250
X1.90250Y9.40250
X2.06628Y4.23163
X2.06628Y4.67652
X2.06628Y6.33163
X2.06628Y6.77652
X2.14896Y4.45604
X2.14896Y6.55604
X2.16628Y8.83163
X2.16628Y9.27652
X2.24896Y9.05604
X2.55604Y4.45604
X2.55604Y6.55604
X2.55604Y9.05604
X2.63478Y4.23163
X2.63478Y4.67258
X2.63478Y6.33163
X2.63478Y6.77258
X2.63478Y8.83163
X2.63478Y9.27258
X2.90250Y4.80250
X2.90250Y6.90250
X2.90250Y9.40250
X3.16628Y4.23163
X3.16628Y4.67652
X3.16628Y6.33163
X3.16628Y6.77652
X3.16628Y8.83163
X3.16628Y9.27652
X3.24896Y4.45604
X3.24896Y6.55604
X3.24896Y9.05604
X3.55604Y4.45604
X3.55604Y6.55604
X3.55604Y9.05604
X3.63478Y4.23163
X3.63478Y4.67258
X3.63478Y6.33163
X3.63478Y6.77258
X3.63478Y8.83163
X3.63478Y9.27258
X3.90250Y4.80250
X3.90250Y6.90250
X3.90250Y9.40250
X4.16628Y4.23163
X4.16628Y4.67652
X4.16628Y6.33163
X4.16628Y6.77652
X4.16628Y8.83163
X4.16628Y9.27652
X4.24896Y4.45604
X4.24896Y6.55604
X4.24896Y9.05604
X6.45604Y5.55604
X6.45604Y7.35604
X6.45604Y9.05604
X6.53478Y5.33163
X6.53478Y5.77258
X6.53478Y7.13163
X6.53478Y7.57258
X6.53478Y8.83163
X6.53478Y9.27258
X6.80250Y5.90250
X6.80250Y7.70250
X6.80250Y9.40250
X7.06628Y5.33163
X7.06628Y5.77652
X7.06628Y7.13163
X7.06628Y7.57652
X7.06628Y8.83163
X7.06628Y9.27652
X7.14896Y5.55604
X7.14896Y7.35604
X7.14896Y9.05604
X7.45604Y5.55604
X7.45604Y7.35604
X7.45604Y9.05604
X7.53478Y5.33163
X7.53478Y5.77258
X7.53478Y7.13163
X7.53478Y7.57258
X7.53478Y8.83163
X7.53478Y9.27258
X7.80250Y5.90250
X7.80250Y7.70250
X7.80250Y9.40250
X8.06628Y5.33163
X8.06628Y5.77652
X8.06628Y7.13163
X8.06628Y7.57652
X8.06628Y8.83163
X8.06628Y9.27652
X8.14896Y5.55604
X8.14896Y7.35604
X8.14896Y9.05604
X8.45604Y5.55604
X8.45604Y7.35604
X8.45604Y9.05604
X8.53478Y5.33163
X8.53478Y5.77258
X8.53478Y7.13163
X8.53478Y7.57258
X8.53478Y8.83163
X8.53478Y9.27258
X8.80250Y5.90250
X8.80250Y7.70250
X8.80250Y9.40250
X9.06628Y5.33163
X9.06628Y5.77652
X9.06628Y7.13163
X9.06628Y7.57652
X9.06628Y8.83163
X9.06628Y9.27652
X9.14896Y5.55604
X9.14896Y7.35604
X9.14896Y9.05604
X9.45604Y5.55604
X9.45604Y7.35604
X9.45604Y9.05604
X9.53478Y5.33163
X9.53478Y5.77258
X9.53478Y7.13163
X9.53478Y7.57258
X9.53478Y8.83163
X9.53478Y9.27258
X9.80250Y5.90250
X9.80250Y7.70250
X9.80250Y9.40250
X10.06628Y5.33163
X10.06628Y5.77652
X10.06628Y7.13163
X10.06628Y7.57652
X10.06628Y8.83163
X10.06628Y9.27652
X10.14896Y5.55604
X10.14896Y7.35604
X10.14896Y9.05604
M30
