G04 DesignSpark PCB Gerber Version 11.0 Build 5877*
G04 #@! TF.Part,Single*
G04 #@! TF.FileFunction,Copper,L1,Top*
G04 #@! TF.FilePolarity,Positive*
%FSLAX35Y35*%
%MOIN*%
%ADD11C,0.03937*%
G04 #@! TA.AperFunction,ComponentPad*
%ADD15C,0.06000*%
G04 #@! TD.AperFunction*
%ADD12C,0.06890*%
G04 #@! TA.AperFunction,ComponentPad*
%ADD16C,0.08661*%
G04 #@! TA.AperFunction,WasherPad*
%ADD22C,0.11024*%
%ADD23R,0.19685X0.11811*%
G04 #@! TD.AperFunction*
X0Y0D02*
D02*
D11*
X20250Y520250D02*
X30250D01*
X20250Y530250D02*
X90250D01*
X30250Y350250D02*
G75*
G03*
X50250Y330250I20000J0D01*
G01*
X470250D01*
X30250Y360250D02*
G75*
G03*
X20250Y350250I0J-10000D01*
G01*
G75*
G03*
X50250Y320250I30000J0D01*
G01*
X460250D01*
X30250Y370250D02*
G75*
G02*
X40250Y360250I0J-10000D01*
G01*
Y350250D01*
G75*
G03*
X50250Y340250I10000J0D01*
G01*
X480250D01*
X30250Y380250D02*
Y390250D01*
Y400250D02*
Y390250D01*
Y420250D02*
G75*
G03*
X40250Y410250I10000J0D01*
G01*
X30250Y420250D02*
Y400250D01*
Y480250D02*
Y420250D01*
Y520250D02*
X40250D01*
X30250Y730250D02*
X40250D01*
X30250Y740250D02*
X90250D01*
X40250Y410250D02*
G75*
G03*
X30250Y400250I0J-10000D01*
G01*
X40250Y520250D02*
X50250D01*
X40250Y730250D02*
X50250D01*
X45604Y445604D02*
X44896D01*
G75*
G02*
X40250Y450250I0J4646D01*
G01*
Y480250D01*
X45604Y655604D02*
X44896D01*
G75*
G02*
X40250Y660250I0J4646D01*
G01*
Y690250D01*
X50250Y480250D02*
G75*
G02*
X60250Y490250I10000J0D01*
G01*
X120250D01*
G75*
G02*
X130250Y480250I0J-10000D01*
G01*
Y410250D01*
G75*
G03*
X140250Y400250I10000J0D01*
G01*
X180250D01*
X50250Y480250D02*
Y470486D01*
G75*
G03*
X53478Y467258I3228J0D01*
G01*
X50250Y690250D02*
G75*
G02*
X60250Y700250I10000J0D01*
G01*
X120250D01*
G75*
G02*
X130250Y690250I0J-10000D01*
G01*
Y560250D01*
G75*
G03*
X140250Y550250I10000J0D01*
G01*
X500250D01*
X50250Y690250D02*
Y680486D01*
G75*
G03*
X53478Y677258I3228J0D01*
G01*
X50250Y730250D02*
X80250D01*
X50250Y840250D02*
Y770250D01*
G75*
G03*
X60250Y760250I10000J0D01*
G01*
X150250D01*
X50250Y980250D02*
X60250D01*
X55604Y905604D02*
X54896D01*
G75*
G02*
X50250Y910250I0J4646D01*
G01*
Y940250D01*
X60250Y260250D02*
X70250D01*
G75*
G03*
X90250Y280250I0J20000D01*
G01*
Y300250D01*
G75*
G02*
X100250Y310250I10000J0D01*
G01*
X200250D01*
X60250Y390250D02*
G75*
G03*
X50250Y380250I0J-10000D01*
G01*
Y370250D01*
G75*
G03*
X70250Y350250I20000J0D01*
G01*
X60250Y400250D02*
G75*
G02*
X70250Y390250I0J-10000D01*
G01*
Y380250D01*
X60250Y940250D02*
G75*
G02*
X70250Y950250I10000J0D01*
G01*
X130250D01*
G75*
G02*
X140250Y940250I0J-10000D01*
G01*
Y830250D01*
G75*
G03*
X150250Y820250I10000J0D01*
G01*
X330250D01*
G75*
G03*
X350250Y840250I0J20000D01*
G01*
X60250Y940250D02*
Y930486D01*
G75*
G03*
X63478Y927258I3228J0D01*
G01*
X60250Y980250D02*
X90250D01*
X70250Y350250D02*
X80250D01*
X70250Y360250D02*
G75*
G02*
X60250Y370250I0J10000D01*
G01*
Y380250D01*
X70250Y360250D02*
X80250D01*
X70250Y370250D02*
Y380250D01*
Y370250D02*
X80250D01*
X70250Y510250D02*
X170250D01*
X70250D02*
X20250D01*
X70250Y720250D02*
X170250D01*
X70250D02*
X30250D01*
X80250Y370250D02*
G75*
G02*
X70250Y380250I0J10000D01*
G01*
X80250Y520250D02*
X50250D01*
X80250Y840250D02*
Y850250D01*
G75*
G02*
X90250Y860250I10000J0D01*
G01*
X80250D02*
X90250D01*
X80250Y970250D02*
X180250D01*
X90250Y530250D02*
X190250D01*
X90250Y740250D02*
X190250D01*
X100250Y990250D02*
X200250D01*
X106628Y423163D02*
Y416628D01*
G75*
G02*
X100250Y410250I-6378J0D01*
G01*
X40250D01*
X106628Y423163D02*
X107337D01*
X106628Y633163D02*
X107337D01*
G75*
G02*
X120250Y620250I0J-12913D01*
G01*
Y610250D01*
X110250Y500250D02*
X180250D01*
X110250Y710250D02*
X180250D01*
X114896Y445604D02*
X75919D01*
G75*
G03*
X53478Y423163I0J-22441D01*
G01*
X114896Y655604D02*
X75919D01*
G75*
G03*
X53478Y633163I0J-22441D01*
G01*
X116628Y883163D02*
X117337D01*
G75*
G02*
X130250Y870250I0J-12913D01*
G01*
Y860250D01*
X120250Y610250D02*
Y600250D01*
Y960250D02*
X190250D01*
X124896Y905604D02*
X85919D01*
G75*
G03*
X63478Y883163I0J-22441D01*
G01*
X130250Y860250D02*
Y850250D01*
X140250Y520250D02*
X80250D01*
X140250D02*
X150250D01*
X140250Y730250D02*
X80250D01*
X140250D02*
X150250D01*
X145604Y445604D02*
X144896D01*
G75*
G02*
X140250Y450250I0J4646D01*
G01*
Y480250D01*
X145604Y655604D02*
X144896D01*
G75*
G02*
X140250Y660250I0J4646D01*
G01*
Y690250D01*
X150250Y480250D02*
G75*
G02*
X160250Y490250I10000J0D01*
G01*
X220250D01*
G75*
G02*
X230250Y480250I0J-10000D01*
G01*
Y390250D01*
X150250Y480250D02*
Y470486D01*
G75*
G03*
X153478Y467258I3228J0D01*
G01*
X150250Y520250D02*
X240250D01*
X150250Y690250D02*
G75*
G02*
X160250Y700250I10000J0D01*
G01*
X220250D01*
G75*
G02*
X230250Y690250I0J-10000D01*
G01*
Y600250D01*
G75*
G03*
X240250Y590250I10000J0D01*
G01*
X150250Y690250D02*
Y680486D01*
G75*
G03*
X153478Y677258I3228J0D01*
G01*
X150250Y760250D02*
X490250D01*
X150250Y980250D02*
X90250D01*
X150250D02*
X160250D01*
X155604Y905604D02*
X154896D01*
G75*
G02*
X150250Y910250I0J4646D01*
G01*
Y940250D01*
X160250Y260250D02*
X170250D01*
G75*
G03*
X190250Y280250I0J20000D01*
G01*
Y300250D01*
G75*
G02*
X200250Y310250I10000J0D01*
G01*
X160250Y770250D02*
X520250D01*
X160250Y940250D02*
G75*
G02*
X170250Y950250I10000J0D01*
G01*
X230250D01*
G75*
G02*
X240250Y940250I0J-10000D01*
G01*
Y840250D01*
G75*
G03*
X250250Y830250I10000J0D01*
G01*
X330250D01*
G75*
G03*
X340250Y840250I0J10000D01*
G01*
G75*
G02*
X350250Y850250I10000J0D01*
G01*
X160250Y940250D02*
Y930486D01*
G75*
G03*
X163478Y927258I3228J0D01*
G01*
X170250Y510250D02*
X280250D01*
X170250Y720250D02*
X280250D01*
X170250Y800250D02*
X470250D01*
X180250Y840250D02*
Y850250D01*
G75*
G02*
X190250Y860250I10000J0D01*
G01*
X180250D02*
X190250D01*
X180250Y970250D02*
X280250D01*
X190250Y530250D02*
X300250D01*
X190250Y740250D02*
X300250D01*
X200250Y310250D02*
X300250D01*
X200250Y990250D02*
X300250D01*
X206628Y423163D02*
X207337D01*
G75*
G02*
X220250Y410250I0J-12913D01*
G01*
Y400250D01*
X206628Y633163D02*
X207337D01*
G75*
G02*
X220250Y620250I0J-12913D01*
G01*
Y610250D01*
X210250Y500250D02*
X290250D01*
X210250Y710250D02*
X290250D01*
X214896Y445604D02*
X175919D01*
G75*
G03*
X153478Y423163I0J-22441D01*
G01*
X214896Y655604D02*
X175919D01*
G75*
G03*
X153478Y633163I0J-22441D01*
G01*
X216628Y883163D02*
X217337D01*
G75*
G02*
X230250Y870250I0J-12913D01*
G01*
Y860250D01*
X220250Y400250D02*
Y390250D01*
Y610250D02*
Y600250D01*
Y960250D02*
X290250D01*
X224896Y905604D02*
X185919D01*
G75*
G03*
X163478Y883163I0J-22441D01*
G01*
X230250Y390250D02*
Y370250D01*
G75*
G03*
X250250Y350250I20000J0D01*
G01*
X450250D01*
X230250Y860250D02*
Y850250D01*
X240250Y380250D02*
G75*
G02*
X230250Y390250I0J10000D01*
G01*
X240250Y400250D02*
Y390250D01*
Y420250D02*
G75*
G03*
X250250Y410250I10000J0D01*
G01*
X240250Y420250D02*
Y400250D01*
Y480250D02*
Y420250D01*
Y520250D02*
X250250D01*
X240250Y610250D02*
Y600250D01*
Y630250D02*
G75*
G03*
X250250Y620250I10000J0D01*
G01*
X240250Y630250D02*
Y610250D01*
Y690250D02*
Y630250D01*
Y730250D02*
X150250D01*
X240250D02*
X250250D01*
Y410250D02*
G75*
G03*
X240250Y400250I0J-10000D01*
G01*
X250250Y520250D02*
X260250D01*
X250250Y620250D02*
G75*
G03*
X240250Y610250I0J-10000D01*
G01*
X250250Y730250D02*
X260250D01*
X250250Y750250D02*
X500250D01*
X250250Y980250D02*
X160250D01*
X250250D02*
X260250D01*
X255604Y445604D02*
X254896D01*
G75*
G02*
X250250Y450250I0J4646D01*
G01*
Y480250D01*
X255604Y655604D02*
X254896D01*
G75*
G02*
X250250Y660250I0J4646D01*
G01*
Y690250D01*
X255604Y905604D02*
X254896D01*
G75*
G02*
X250250Y910250I0J4646D01*
G01*
Y940250D01*
X260250Y260250D02*
X270250D01*
G75*
G03*
X290250Y280250I0J20000D01*
G01*
Y300250D01*
G75*
G02*
X300250Y310250I10000J0D01*
G01*
X260250Y480250D02*
G75*
G02*
X270250Y490250I10000J0D01*
G01*
X330250D01*
G75*
G02*
X340250Y480250I0J-10000D01*
G01*
Y410250D01*
G75*
G03*
X350250Y400250I10000J0D01*
G01*
X390250D01*
X260250Y480250D02*
Y470486D01*
G75*
G03*
X263478Y467258I3228J0D01*
G01*
X260250Y520250D02*
X350250D01*
X260250Y690250D02*
G75*
G02*
X270250Y700250I10000J0D01*
G01*
X330250D01*
G75*
G02*
X340250Y690250I0J-10000D01*
G01*
Y620250D01*
X260250Y690250D02*
Y680486D01*
G75*
G03*
X263478Y677258I3228J0D01*
G01*
X260250Y730250D02*
X350250D01*
X260250Y780250D02*
X510250D01*
X260250D02*
X70250D01*
G75*
G02*
X60250Y790250I0J10000D01*
G01*
Y840250D01*
G75*
G03*
X50250Y850250I-10000J0D01*
G01*
X260250Y940250D02*
G75*
G02*
X270250Y950250I10000J0D01*
G01*
X330250D01*
G75*
G02*
X340250Y940250I0J-10000D01*
G01*
Y870250D01*
G75*
G03*
X350250Y860250I10000J0D01*
G01*
X260250Y940250D02*
Y930486D01*
G75*
G03*
X263478Y927258I3228J0D01*
G01*
X260250Y980250D02*
X350250D01*
X270250Y390250D02*
Y380250D01*
G75*
G03*
X280250Y370250I10000J0D01*
G01*
X270250Y600250D02*
Y590250D01*
G75*
G03*
X280250Y580250I10000J0D01*
G01*
Y370250D02*
X290250D01*
X280250Y380250D02*
Y390250D01*
Y380250D02*
X290250D01*
X280250Y390250D02*
G75*
G03*
X270250Y400250I-10000J0D01*
G01*
X280250Y510250D02*
X380250D01*
X280250Y580250D02*
X290250D01*
X280250Y590250D02*
Y600250D01*
Y590250D02*
X290250D01*
X280250Y600250D02*
G75*
G03*
X270250Y610250I-10000J0D01*
G01*
X280250Y840250D02*
Y850250D01*
G75*
G02*
X290250Y860250I10000J0D01*
G01*
X280250D02*
X290250D01*
X280250Y970250D02*
X380250D01*
X290250Y380250D02*
G75*
G02*
X280250Y390250I0J10000D01*
G01*
X290250Y590250D02*
G75*
G02*
X280250Y600250I0J10000D01*
G01*
X300250Y310250D02*
X420250D01*
X300250Y530250D02*
X400250D01*
X300250Y620250D02*
X250250D01*
X300250Y740250D02*
X400250D01*
X300250Y990250D02*
X400250D01*
X310250Y600250D02*
Y610250D01*
G75*
G03*
X300250Y620250I-10000J0D01*
G01*
X316628Y423163D02*
Y416628D01*
G75*
G02*
X310250Y410250I-6378J0D01*
G01*
X250250D01*
X316628Y423163D02*
X317337D01*
X316628Y633163D02*
Y626628D01*
G75*
G02*
X310250Y620250I-6378J0D01*
G01*
X300250D01*
X316628Y633163D02*
X317337D01*
X316628Y883163D02*
X317337D01*
G75*
G02*
X330250Y870250I0J-12913D01*
G01*
Y860250D01*
X320250Y500250D02*
X390250D01*
X320250Y710250D02*
X390250D01*
X320250Y960250D02*
X390250D01*
X324896Y445604D02*
X285919D01*
G75*
G03*
X263478Y423163I0J-22441D01*
G01*
X324896Y655604D02*
G75*
G02*
X330250Y650250I0J-5354D01*
G01*
Y610250D01*
G75*
G02*
X320250Y600250I-10000J0D01*
G01*
X324896Y655604D02*
X285919D01*
G75*
G03*
X263478Y633163I0J-22441D01*
G01*
X324896Y905604D02*
X285919D01*
G75*
G03*
X263478Y883163I0J-22441D01*
G01*
X330250Y860250D02*
Y850250D01*
X340250Y620250D02*
Y590250D01*
G75*
G03*
X350250Y580250I10000J0D01*
G01*
X540250D01*
X350250Y520250D02*
X360250D01*
X350250Y730250D02*
X360250D01*
X350250Y980250D02*
X360250D01*
X355604Y445604D02*
X354896D01*
G75*
G02*
X350250Y450250I0J4646D01*
G01*
Y480250D01*
X355604Y655604D02*
X354896D01*
G75*
G02*
X350250Y660250I0J4646D01*
G01*
Y690250D01*
X355604Y905604D02*
X354896D01*
G75*
G02*
X350250Y910250I0J4646D01*
G01*
Y940250D01*
X360250Y480250D02*
G75*
G02*
X370250Y490250I10000J0D01*
G01*
X430250D01*
G75*
G02*
X440250Y480250I0J-10000D01*
G01*
Y380250D01*
G75*
G03*
X450250Y370250I10000J0D01*
G01*
X490250D01*
X360250Y480250D02*
Y470486D01*
G75*
G03*
X363478Y467258I3228J0D01*
G01*
X360250Y690250D02*
G75*
G02*
X370250Y700250I10000J0D01*
G01*
X430250D01*
G75*
G02*
X440250Y690250I0J-10000D01*
G01*
X360250D02*
Y680486D01*
G75*
G03*
X363478Y677258I3228J0D01*
G01*
X360250Y940250D02*
G75*
G02*
X370250Y950250I10000J0D01*
G01*
X430250D01*
G75*
G02*
X440250Y940250I0J-10000D01*
G01*
Y830250D01*
G75*
G03*
X450250Y820250I10000J0D01*
G01*
X570250D01*
X360250Y940250D02*
Y930486D01*
G75*
G03*
X363478Y927258I3228J0D01*
G01*
X380250Y220250D02*
X390250D01*
G75*
G03*
X400250Y230250I0J10000D01*
G01*
G75*
G02*
X410250Y240250I10000J0D01*
G01*
X490250D01*
X380250Y260250D02*
X390250D01*
G75*
G03*
X410250Y280250I0J20000D01*
G01*
Y300250D01*
G75*
G02*
X420250Y310250I10000J0D01*
G01*
X380250Y510250D02*
X420250D01*
X380250Y720250D02*
X420250D01*
X380250D02*
X280250D01*
X380250Y850250D02*
Y840250D01*
Y850250D02*
G75*
G02*
X390250Y860250I10000J0D01*
G01*
X380250D02*
X390250D01*
X380250Y970250D02*
X420250D01*
X390250Y610250D02*
X350250D01*
G75*
G02*
X340250Y620250I0J10000D01*
G01*
X400250Y530250D02*
X580250D01*
X400250Y740250D02*
X580250D01*
X400250Y990250D02*
X580250D01*
X416628Y423163D02*
X417337D01*
G75*
G02*
X430250Y410250I0J-12913D01*
G01*
Y400250D01*
X416628Y633163D02*
X417337D01*
G75*
G02*
X430250Y620250I0J-12913D01*
G01*
Y610250D01*
X416628Y883163D02*
X417337D01*
G75*
G02*
X430250Y870250I0J-12913D01*
G01*
Y860250D01*
X420250Y310250D02*
X590250D01*
X420250Y510250D02*
X610250D01*
X420250Y720250D02*
X610250D01*
X420250Y970250D02*
X610250D01*
X424896Y445604D02*
X385919D01*
G75*
G03*
X363478Y423163I0J-22441D01*
G01*
X424896Y655604D02*
X385919D01*
G75*
G03*
X363478Y633163I0J-22441D01*
G01*
X424896Y905604D02*
X385919D01*
G75*
G03*
X363478Y883163I0J-22441D01*
G01*
X430250Y400250D02*
Y390250D01*
Y610250D02*
Y600250D01*
Y860250D02*
Y850250D01*
X440250Y690250D02*
Y600250D01*
G75*
G03*
X450250Y590250I10000J0D01*
G01*
X550250D01*
X450250Y460250D02*
X730250D01*
X450250Y560250D02*
X180250D01*
G75*
G02*
X170250Y570250I0J10000D01*
G01*
Y600250D01*
G75*
G02*
X180250Y610250I10000J0D01*
G01*
X460250Y180250D02*
X90250D01*
G75*
G02*
X60250Y210250I0J30000D01*
G01*
Y220250D01*
X460250Y790250D02*
X270250D01*
X470250Y190250D02*
X180250D01*
G75*
G02*
X160250Y210250I0J20000D01*
G01*
Y220250D01*
X480250Y200250D02*
X270250D01*
G75*
G02*
X260250Y210250I0J10000D01*
G01*
Y220250D01*
X480250Y810250D02*
X80250D01*
G75*
G02*
X70250Y820250I0J10000D01*
G01*
Y840250D01*
G75*
G03*
X50250Y860250I-20000J0D01*
G01*
X490250Y540250D02*
X80250D01*
G75*
G02*
X70250Y550250I0J10000D01*
G01*
Y600250D01*
G75*
G02*
X80250Y610250I10000J0D01*
G01*
X510250Y360250D02*
X250250D01*
G75*
G02*
X240250Y370250I0J10000D01*
G01*
X520250Y650250D02*
X1010250D01*
G75*
G03*
X1030250Y670250I0J20000D01*
G01*
Y710250D01*
X530250Y330250D02*
X650250D01*
X540250Y680250D02*
X640250D01*
X550250Y850250D02*
X640250D01*
X560250Y570250D02*
X250250D01*
G75*
G02*
X240250Y580250I0J10000D01*
G01*
X570250Y860250D02*
X640250D01*
X580250Y640250D02*
X790250D01*
X580250Y820250D02*
X690250D01*
X580250Y990250D02*
X690250D01*
X590250Y520250D02*
X360250D01*
X590250Y730250D02*
X360250D01*
X590250Y980250D02*
X600250D01*
X590250D02*
X360250D01*
X600250Y630250D02*
X640250D01*
X600250Y810250D02*
X640250D01*
X600250Y980250D02*
X640250D01*
X610250Y970250D02*
X620250D01*
Y620250D02*
X690250D01*
X640250Y630250D02*
X650250D01*
X640250Y810250D02*
X650250D01*
X640250Y980250D02*
X650250D01*
X645604Y555604D02*
X644896D01*
G75*
G02*
X640250Y560250I0J4646D01*
G01*
Y590250D01*
X645604Y735604D02*
X644896D01*
G75*
G02*
X640250Y740250I0J4646D01*
G01*
Y770250D01*
X645604Y905604D02*
X644896D01*
G75*
G02*
X640250Y910250I0J4646D01*
G01*
Y940250D01*
X650250Y280250D02*
X460250D01*
X650250Y290250D02*
X470250D01*
X650250Y300250D02*
X480250D01*
X650250Y320250D02*
X570250D01*
X650250Y340250D02*
X490250D01*
X650250Y350250D02*
X510250D01*
X650250Y590250D02*
Y580486D01*
G75*
G03*
X653478Y577258I3228J0D01*
G01*
X650250Y630250D02*
X680250D01*
X650250Y770250D02*
G75*
G02*
X660250Y780250I10000J0D01*
G01*
X720250D01*
G75*
G02*
X730250Y770250I0J-10000D01*
G01*
Y690250D01*
G75*
G03*
X740250Y680250I10000J0D01*
G01*
X650250Y770250D02*
Y760486D01*
G75*
G03*
X653478Y757258I3228J0D01*
G01*
X650250Y940250D02*
G75*
G02*
X660250Y950250I10000J0D01*
G01*
X720250D01*
G75*
G02*
X730250Y940250I0J-10000D01*
G01*
Y860250D01*
G75*
G03*
X740250Y850250I10000J0D01*
G01*
X650250Y940250D02*
Y930486D01*
G75*
G03*
X653478Y927258I3228J0D01*
G01*
X650250Y980250D02*
X680250D01*
X653478Y533163D02*
X653163D01*
G75*
G02*
X620250Y500250I-32913J0D01*
G01*
X510250D01*
X653478Y533163D02*
X653163D01*
X670250Y680250D02*
G75*
G02*
X680250Y690250I10000J0D01*
G01*
X670250D02*
X680250D01*
X670250Y800250D02*
X770250D01*
X670250D02*
X620250D01*
X670250Y850250D02*
G75*
G02*
X680250Y860250I10000J0D01*
G01*
X670250D02*
X680250D01*
X670250Y970250D02*
X770250D01*
X670250D02*
X620250D01*
X680250Y630250D02*
X730250D01*
X680250Y810250D02*
X650250D01*
X690250Y320250D02*
X710250D01*
G75*
G03*
X750250Y360250I0J40000D01*
G01*
Y400250D01*
G75*
G02*
X760250Y410250I10000J0D01*
G01*
X900250D01*
G75*
G02*
X910250Y400250I0J-10000D01*
G01*
G75*
G03*
X930250Y380250I20000J0D01*
G01*
X960250D01*
X690250Y340250D02*
X710250D01*
G75*
G03*
X730250Y360250I0J20000D01*
G01*
Y400250D01*
G75*
G02*
X760250Y430250I30000J0D01*
G01*
X910250D01*
G75*
G02*
X930250Y410250I0J-20000D01*
G01*
G75*
G03*
X940250Y400250I10000J0D01*
G01*
X960250D01*
X690250Y620250D02*
X720250D01*
X690250Y820250D02*
X790250D01*
X690250Y990250D02*
X790250D01*
X706628Y533163D02*
Y516628D01*
G75*
G02*
X700250Y510250I-6378J0D01*
G01*
X706628Y533163D02*
X707337D01*
X706628Y713163D02*
X707337D01*
G75*
G02*
X720250Y700250I0J-12913D01*
G01*
Y690250D01*
X706628Y883163D02*
X707337D01*
G75*
G02*
X720250Y870250I0J-12913D01*
G01*
Y860250D01*
X710250Y610250D02*
X780250D01*
X710250Y790250D02*
X780250D01*
X710250Y960250D02*
X780250D01*
X714896Y555604D02*
X715604D01*
G75*
G03*
X720250Y560250I0J4646D01*
G01*
Y580250D01*
X714896Y555604D02*
X675919D01*
G75*
G03*
X653478Y533163I0J-22441D01*
G01*
X714896Y735604D02*
X675919D01*
G75*
G03*
X653478Y713163I0J-22441D01*
G01*
X714896Y905604D02*
X675919D01*
G75*
G03*
X653478Y883163I0J-22441D01*
G01*
X720250Y620250D02*
X770250D01*
X720250Y690250D02*
Y680250D01*
Y860250D02*
Y850250D01*
X730250Y470250D02*
X560250D01*
X730250Y480250D02*
Y490250D01*
Y510250D01*
Y530250D01*
G75*
G03*
X740250Y520250I10000J0D01*
G01*
X730250Y530250D02*
Y590250D01*
Y630250D02*
X740250D01*
Y520250D02*
G75*
G03*
X730250Y510250I0J-10000D01*
G01*
X740250Y630250D02*
X750250D01*
X740250Y810250D02*
X680250D01*
X740250D02*
X750250D01*
X740250Y980250D02*
X680250D01*
X740250D02*
X750250D01*
X745604Y555604D02*
X744896D01*
G75*
G02*
X740250Y560250I0J4646D01*
G01*
Y590250D01*
X745604Y735604D02*
X744896D01*
G75*
G02*
X740250Y740250I0J4646D01*
G01*
Y770250D01*
X745604Y905604D02*
X744896D01*
G75*
G02*
X740250Y910250I0J4646D01*
G01*
Y940250D01*
X750250Y590250D02*
G75*
G02*
X760250Y600250I10000J0D01*
G01*
X820250D01*
G75*
G02*
X830250Y590250I0J-10000D01*
G01*
Y520250D01*
G75*
G03*
X840250Y510250I10000J0D01*
G01*
X880250D01*
X750250Y590250D02*
Y580486D01*
G75*
G03*
X753478Y577258I3228J0D01*
G01*
X750250Y630250D02*
X840250D01*
X750250Y770250D02*
G75*
G02*
X760250Y780250I10000J0D01*
G01*
X820250D01*
G75*
G02*
X830250Y770250I0J-10000D01*
G01*
Y680250D01*
G75*
G03*
X840250Y670250I10000J0D01*
G01*
X930250D01*
G75*
G03*
X940250Y680250I0J10000D01*
G01*
X750250Y770250D02*
Y760486D01*
G75*
G03*
X753478Y757258I3228J0D01*
G01*
X750250Y940250D02*
G75*
G02*
X760250Y950250I10000J0D01*
G01*
X820250D01*
G75*
G02*
X830250Y940250I0J-10000D01*
G01*
Y850250D01*
G75*
G03*
X840250Y840250I10000J0D01*
G01*
X930250D01*
G75*
G03*
X940250Y850250I0J10000D01*
G01*
X750250Y940250D02*
Y930486D01*
G75*
G03*
X753478Y927258I3228J0D01*
G01*
X760250Y490250D02*
G75*
G03*
X750250Y480250I0J-10000D01*
G01*
Y470250D01*
G75*
G03*
X760250Y460250I10000J0D01*
G01*
X770250D01*
X780250D01*
X770250Y470250D02*
G75*
G02*
X760250Y480250I0J10000D01*
G01*
X770250Y470250D02*
X780250D01*
X770250Y620250D02*
X870250D01*
X770250Y680250D02*
G75*
G02*
X780250Y690250I10000J0D01*
G01*
X770250D02*
X780250D01*
X770250Y800250D02*
X870250D01*
X770250Y850250D02*
G75*
G02*
X780250Y860250I10000J0D01*
G01*
X770250D02*
X780250D01*
X770250Y970250D02*
X870250D01*
X790250Y210250D02*
X810250D01*
X790250D02*
X780250D01*
G75*
G02*
X770250Y220250I0J10000D01*
G01*
Y230250D01*
G75*
G03*
X760250Y240250I-10000J0D01*
G01*
X560250D01*
X790250Y250250D02*
X810250D01*
X790250D02*
X600250D01*
X790250Y640250D02*
X890250D01*
X790250Y820250D02*
X890250D01*
X790250Y990250D02*
X890250D01*
X800250Y220250D02*
G75*
G03*
X810250Y210250I10000J0D01*
G01*
X800250Y220250D02*
G75*
G02*
X790250Y210250I-10000J0D01*
G01*
X800250Y260250D02*
G75*
G02*
X790250Y250250I-10000J0D01*
G01*
X806628Y533163D02*
Y526628D01*
G75*
G02*
X800250Y520250I-6378J0D01*
G01*
X740250D01*
X806628Y533163D02*
X807337D01*
X806628Y713163D02*
X807337D01*
G75*
G02*
X820250Y700250I0J-12913D01*
G01*
Y690250D01*
X806628Y883163D02*
X807337D01*
G75*
G02*
X820250Y870250I0J-12913D01*
G01*
Y860250D01*
X810250Y250250D02*
G75*
G02*
X800250Y260250I0J10000D01*
G01*
X810250Y610250D02*
X880250D01*
X810250Y790250D02*
X880250D01*
X810250Y960250D02*
X880250D01*
X814896Y555604D02*
X775919D01*
G75*
G03*
X753478Y533163I0J-22441D01*
G01*
X814896Y735604D02*
X775919D01*
G75*
G03*
X753478Y713163I0J-22441D01*
G01*
X814896Y905604D02*
X775919D01*
G75*
G03*
X753478Y883163I0J-22441D01*
G01*
X820250Y250250D02*
X840250D01*
X820250D02*
X810250D01*
X820250Y690250D02*
Y680250D01*
Y860250D02*
Y850250D01*
X830250Y220250D02*
G75*
G02*
X820250Y210250I-10000J0D01*
G01*
X810250D01*
X830250Y260250D02*
G75*
G03*
X840250Y250250I10000J0D01*
G01*
X830250Y260250D02*
G75*
G02*
X820250Y250250I-10000J0D01*
G01*
X840250D02*
X850250D01*
G75*
G03*
X860250Y260250I0J10000D01*
G01*
Y320250D01*
G75*
G03*
X850250Y330250I-10000J0D01*
G01*
X820250D01*
X840250Y630250D02*
X850250D01*
X840250Y810250D02*
X750250D01*
X840250D02*
X850250D01*
X840250Y980250D02*
X750250D01*
X840250D02*
X850250D01*
X845604Y555604D02*
X844896D01*
G75*
G02*
X840250Y560250I0J4646D01*
G01*
Y590250D01*
X845604Y735604D02*
X844896D01*
G75*
G02*
X840250Y740250I0J4646D01*
G01*
Y770250D01*
X845604Y905604D02*
X844896D01*
G75*
G02*
X840250Y910250I0J4646D01*
G01*
Y940250D01*
X850250Y590250D02*
G75*
G02*
X860250Y600250I10000J0D01*
G01*
X920250D01*
G75*
G02*
X930250Y590250I0J-10000D01*
G01*
Y520250D01*
G75*
G03*
X940250Y510250I10000J0D01*
G01*
X950250D01*
X850250Y590250D02*
Y580486D01*
G75*
G03*
X853478Y577258I3228J0D01*
G01*
X850250Y770250D02*
G75*
G02*
X860250Y780250I10000J0D01*
G01*
X920250D01*
G75*
G02*
X930250Y770250I0J-10000D01*
G01*
Y700250D01*
G75*
G03*
X940250Y690250I10000J0D01*
G01*
X850250Y770250D02*
Y760486D01*
G75*
G03*
X853478Y757258I3228J0D01*
G01*
X850250Y940250D02*
G75*
G02*
X860250Y950250I10000J0D01*
G01*
X920250D01*
G75*
G02*
X930250Y940250I0J-10000D01*
G01*
Y870250D01*
G75*
G03*
X940250Y860250I10000J0D01*
G01*
X850250Y940250D02*
Y930486D01*
G75*
G03*
X853478Y927258I3228J0D01*
G01*
X850250Y980250D02*
X940250D01*
X870250Y620250D02*
X990250D01*
X870250Y680250D02*
G75*
G02*
X880250Y690250I10000J0D01*
G01*
X870250D02*
X880250D01*
X870250Y800250D02*
X970250D01*
X870250Y850250D02*
G75*
G02*
X880250Y860250I10000J0D01*
G01*
X870250D02*
X880250D01*
X870250Y970250D02*
X970250D01*
X890250Y640250D02*
X1030250D01*
X890250Y820250D02*
X990250D01*
X890250Y990250D02*
X990250D01*
X906628Y533163D02*
X907337D01*
G75*
G02*
X920250Y520250I0J-12913D01*
G01*
Y510250D01*
X906628Y713163D02*
X907337D01*
G75*
G02*
X920250Y700250I0J-12913D01*
G01*
Y690250D01*
X906628Y883163D02*
X907337D01*
G75*
G02*
X920250Y870250I0J-12913D01*
G01*
Y860250D01*
X910250Y610250D02*
X980250D01*
X910250Y960250D02*
X980250D01*
X914896Y555604D02*
X875919D01*
G75*
G03*
X853478Y533163I0J-22441D01*
G01*
X914896Y735604D02*
X875919D01*
G75*
G03*
X853478Y713163I0J-22441D01*
G01*
X914896Y905604D02*
X875919D01*
G75*
G03*
X853478Y883163I0J-22441D01*
G01*
X920250Y510250D02*
Y500250D01*
Y690250D02*
Y680250D01*
Y860250D02*
Y850250D01*
X940250Y330250D02*
X970250D01*
G75*
G03*
X1010250Y370250I0J40000D01*
G01*
Y390250D01*
G75*
G03*
X990250Y410250I-20000J0D01*
G01*
X940250Y630250D02*
X850250D01*
X940250D02*
X950250D01*
X940250Y690250D02*
G75*
G02*
X950250Y680250I0J-10000D01*
G01*
Y670250D01*
G75*
G02*
X940250Y660250I-10000J0D01*
G01*
X630250D01*
X940250Y810250D02*
X850250D01*
X940250D02*
X950250D01*
X940250Y860250D02*
G75*
G02*
X950250Y850250I0J-10000D01*
G01*
G75*
G02*
X930250Y830250I-20000J0D01*
G01*
X630250D01*
X940250Y980250D02*
X950250D01*
X945604Y555604D02*
X944896D01*
G75*
G02*
X940250Y560250I0J4646D01*
G01*
Y590250D01*
X945604Y735604D02*
X944896D01*
G75*
G02*
X940250Y740250I0J4646D01*
G01*
Y770250D01*
X945604Y905604D02*
X944896D01*
G75*
G02*
X940250Y910250I0J4646D01*
G01*
Y940250D01*
X950250Y590250D02*
Y580486D01*
G75*
G03*
X953478Y577258I3228J0D01*
G01*
X950250Y770250D02*
G75*
G02*
X960250Y780250I10000J0D01*
G01*
X1020250D01*
G75*
G02*
X1030250Y770250I0J-10000D01*
G01*
Y710250D01*
X950250Y770250D02*
Y760486D01*
G75*
G03*
X953478Y757258I3228J0D01*
G01*
X950250Y940250D02*
G75*
G02*
X960250Y950250I10000J0D01*
G01*
X1020250D01*
G75*
G02*
X1030250Y940250I0J-10000D01*
G01*
Y880250D01*
X950250Y940250D02*
Y930486D01*
G75*
G03*
X953478Y927258I3228J0D01*
G01*
Y533163D02*
X953163D01*
X960250Y390250D02*
X930250D01*
G75*
G02*
X920250Y400250I0J10000D01*
G01*
Y410250D01*
G75*
G03*
X910250Y420250I-10000J0D01*
G01*
X760250D01*
G75*
G03*
X740250Y400250I0J-20000D01*
G01*
Y360250D01*
G75*
G02*
X710250Y330250I-30000J0D01*
G01*
X690250D01*
X960250Y410250D02*
X970250D01*
G75*
G02*
X980250Y400250I0J-10000D01*
G01*
Y380250D01*
G75*
G02*
X970250Y370250I-10000J0D01*
G01*
X790250D01*
G75*
G03*
X760250Y340250I0J-30000D01*
G01*
Y320250D01*
G75*
G02*
X750250Y310250I-10000J0D01*
G01*
X690250D01*
G75*
G03*
X680250Y300250I0J-10000D01*
G01*
Y290250D01*
G75*
G03*
X690250Y280250I10000J0D01*
G01*
X960250Y500250D02*
G75*
G03*
X950250Y510250I-10000J0D01*
G01*
X960250D02*
X950250D01*
X970250Y680250D02*
G75*
G02*
X980250Y690250I10000J0D01*
G01*
X970250D02*
X980250D01*
X970250Y800250D02*
X1010250D01*
X970250Y850250D02*
G75*
G02*
X980250Y860250I10000J0D01*
G01*
X970250D02*
X980250D01*
X970250Y970250D02*
X1010250D01*
X980250Y555604D02*
X975604D01*
G75*
G03*
X970250Y550250I0J-5354D01*
G01*
Y500250D01*
G75*
G02*
X960250Y490250I-10000J0D01*
G01*
G75*
G03*
X950250Y480250I0J-10000D01*
G01*
Y460250D01*
G75*
G02*
X940250Y450250I-10000J0D01*
G01*
X530250D01*
X980250Y555604D02*
X975919D01*
G75*
G03*
X953478Y533163I0J-22441D01*
G01*
X980250Y790250D02*
X910250D01*
X990250Y390250D02*
Y380250D01*
G75*
G02*
X970250Y360250I-20000J0D01*
G01*
X790250D01*
G75*
G03*
X770250Y340250I0J-20000D01*
G01*
Y320250D01*
G75*
G02*
X750250Y300250I-20000J0D01*
G01*
X690250D01*
X990250Y400250D02*
G75*
G02*
X1000250Y390250I0J-10000D01*
G01*
Y380250D01*
G75*
G02*
X970250Y350250I-30000J0D01*
G01*
X790250D01*
G75*
G03*
X780250Y340250I0J-10000D01*
G01*
Y320250D01*
G75*
G02*
X750250Y290250I-30000J0D01*
G01*
X690250D01*
X990250Y420250D02*
G75*
G03*
X970250Y440250I-20000J0D01*
G01*
X760250D01*
G75*
G03*
X720250Y400250I0J-40000D01*
G01*
Y360250D01*
G75*
G02*
X710250Y350250I-10000J0D01*
G01*
X690250D01*
X990250Y620250D02*
X1000250D01*
X990250Y820250D02*
X1030250D01*
X1000250Y620250D02*
X1020250D01*
X1006628Y533163D02*
Y516628D01*
G75*
G02*
X1000250Y510250I-6378J0D01*
G01*
X1006628Y533163D02*
X1007337D01*
X1006628Y713163D02*
X1007337D01*
G75*
G02*
X1020250Y700250I0J-12913D01*
G01*
Y690250D01*
X1006628Y883163D02*
X1007337D01*
G75*
G02*
X1020250Y870250I0J-12913D01*
G01*
Y860250D01*
X1010250Y800250D02*
X1030250D01*
X1014896Y555604D02*
X1015604D01*
G75*
G03*
X1020250Y560250I0J4646D01*
G01*
Y580250D01*
X1014896Y555604D02*
X980250D01*
X1014896Y735604D02*
X975919D01*
G75*
G03*
X953478Y713163I0J-22441D01*
G01*
X1014896Y905604D02*
X975919D01*
G75*
G03*
X953478Y883163I0J-22441D01*
G01*
X1020250Y620250D02*
X1030250D01*
X1020250Y690250D02*
Y680250D01*
Y860250D02*
Y850250D01*
X1030250Y630250D02*
X950250D01*
X1030250Y810250D02*
X950250D01*
D02*
D12*
X20250Y510250D03*
Y520250D03*
Y530250D03*
X30250Y720250D03*
Y730250D03*
Y740250D03*
X70250Y510250D03*
Y720250D03*
X80250Y520250D03*
Y730250D03*
Y970250D03*
X90250Y530250D03*
Y740250D03*
Y980250D03*
X100250Y990250D03*
X110250Y500250D03*
Y710250D03*
X120250Y960250D03*
X150250Y760250D03*
X160250Y770250D03*
X170250Y510250D03*
Y720250D03*
Y800250D03*
X180250Y500250D03*
Y710250D03*
Y970250D03*
X190250Y530250D03*
Y740250D03*
Y960250D03*
X200250Y990250D03*
X210250Y500250D03*
Y710250D03*
X220250Y960250D03*
X250250Y750250D03*
X260250Y780250D03*
X270250Y790250D03*
X280250Y510250D03*
Y720250D03*
Y970250D03*
X290250Y500250D03*
Y710250D03*
Y960250D03*
X300250Y530250D03*
Y740250D03*
Y990250D03*
X320250Y500250D03*
Y710250D03*
Y960250D03*
X380250Y510250D03*
Y720250D03*
Y970250D03*
X390250Y500250D03*
Y710250D03*
Y960250D03*
X400250Y530250D03*
Y740250D03*
Y990250D03*
X420250Y510250D03*
Y720250D03*
Y970250D03*
X450250Y170250D03*
Y350250D03*
Y460250D03*
Y560250D03*
Y1000250D03*
X460250Y170250D03*
Y180250D03*
Y280250D03*
Y320250D03*
Y790250D03*
Y1000250D03*
X470250Y170250D03*
Y190250D03*
Y290250D03*
Y330250D03*
Y800250D03*
Y1000250D03*
X480250Y170250D03*
Y200250D03*
Y300250D03*
Y340250D03*
Y810250D03*
Y1000250D03*
X490250Y170250D03*
Y240250D03*
Y340250D03*
Y370250D03*
Y380250D03*
Y430250D03*
Y540250D03*
Y760250D03*
Y1000250D03*
X500250Y170250D03*
Y550250D03*
Y750250D03*
Y1000250D03*
X510250Y170250D03*
Y350250D03*
Y360250D03*
Y500250D03*
Y780250D03*
Y1000250D03*
X520250Y170250D03*
Y650250D03*
Y770250D03*
Y1000250D03*
X530250Y170250D03*
Y330250D03*
Y450250D03*
Y1000250D03*
X540250Y170250D03*
Y580250D03*
Y680250D03*
Y1000250D03*
X550250Y170250D03*
Y590250D03*
Y850250D03*
Y1000250D03*
X560250Y170250D03*
Y240250D03*
Y470250D03*
Y570250D03*
Y1000250D03*
X570250Y170250D03*
Y320250D03*
Y820250D03*
Y860250D03*
Y1000250D03*
X580250Y170250D03*
Y530250D03*
Y640250D03*
Y740250D03*
Y820250D03*
Y990250D03*
Y1000250D03*
X590250Y170250D03*
Y310250D03*
Y520250D03*
Y730250D03*
Y980250D03*
Y1000250D03*
X600250Y170250D03*
Y250250D03*
Y630250D03*
Y810250D03*
Y980250D03*
Y1000250D03*
X610250Y170250D03*
Y510250D03*
Y720250D03*
Y970250D03*
Y1000250D03*
X620250Y170250D03*
Y620250D03*
Y800250D03*
Y970250D03*
Y1000250D03*
X630250Y660250D03*
Y830250D03*
X670250Y800250D03*
Y970250D03*
X680250Y630250D03*
Y810250D03*
Y980250D03*
X690250Y620250D03*
Y820250D03*
Y990250D03*
X710250Y610250D03*
Y790250D03*
Y960250D03*
X770250Y620250D03*
Y800250D03*
Y970250D03*
X780250Y610250D03*
Y790250D03*
Y960250D03*
X790250Y640250D03*
Y820250D03*
Y990250D03*
X810250Y610250D03*
Y790250D03*
Y960250D03*
X820250Y330250D03*
X870250Y620250D03*
Y800250D03*
Y970250D03*
X880250Y610250D03*
Y790250D03*
Y960250D03*
X890250Y640250D03*
Y820250D03*
Y990250D03*
X910250Y610250D03*
Y790250D03*
Y960250D03*
X940250Y330250D03*
X960250Y380250D03*
Y390250D03*
Y400250D03*
Y410250D03*
Y420250D03*
X970250Y800250D03*
Y970250D03*
X980250Y610250D03*
Y790250D03*
Y960250D03*
X990250Y390250D03*
Y400250D03*
Y410250D03*
Y420250D03*
Y620250D03*
Y820250D03*
Y990250D03*
X1000250Y620250D03*
X1010250Y800250D03*
Y970250D03*
X1030250Y620250D03*
Y630250D03*
Y640250D03*
Y710250D03*
Y800250D03*
Y810250D03*
Y820250D03*
Y880250D03*
D02*
D15*
X30250Y350250D03*
Y360250D03*
Y370250D03*
Y380250D03*
Y390250D03*
Y400250D03*
Y480250D03*
Y520250D03*
X40250Y480250D03*
Y520250D03*
Y690250D03*
Y730250D03*
X50250Y480250D03*
Y520250D03*
Y690250D03*
Y730250D03*
Y840250D03*
Y850250D03*
Y860250D03*
Y940250D03*
Y980250D03*
X60250Y380250D03*
Y390250D03*
Y400250D03*
Y940250D03*
Y980250D03*
X70250Y350250D03*
Y360250D03*
Y370250D03*
X80250Y350250D03*
Y360250D03*
Y370250D03*
Y600250D03*
Y610250D03*
Y840250D03*
Y850250D03*
Y860250D03*
X90250Y850250D03*
Y860250D03*
X120250Y350250D03*
Y360250D03*
Y370250D03*
Y600250D03*
Y610250D03*
X130250Y850250D03*
Y860250D03*
X140250Y480250D03*
Y520250D03*
Y690250D03*
Y730250D03*
X150250Y480250D03*
Y520250D03*
Y690250D03*
Y730250D03*
Y840250D03*
Y850250D03*
Y860250D03*
Y940250D03*
Y980250D03*
X160250Y940250D03*
Y980250D03*
X180250Y390250D03*
Y400250D03*
Y600250D03*
Y610250D03*
Y840250D03*
Y850250D03*
Y860250D03*
X190250Y850250D03*
Y860250D03*
X220250Y390250D03*
Y400250D03*
Y600250D03*
Y610250D03*
X230250Y850250D03*
Y860250D03*
X240250Y370250D03*
Y380250D03*
Y390250D03*
Y400250D03*
Y480250D03*
Y520250D03*
Y580250D03*
Y590250D03*
Y600250D03*
Y610250D03*
Y690250D03*
Y730250D03*
X250250Y480250D03*
Y520250D03*
Y690250D03*
Y730250D03*
Y840250D03*
Y850250D03*
Y860250D03*
Y940250D03*
Y980250D03*
X260250Y480250D03*
Y520250D03*
Y690250D03*
Y730250D03*
Y940250D03*
Y980250D03*
X270250Y390250D03*
Y400250D03*
Y600250D03*
Y610250D03*
X280250Y370250D03*
Y380250D03*
Y580250D03*
Y590250D03*
Y840250D03*
Y850250D03*
Y860250D03*
X290250Y370250D03*
Y380250D03*
Y580250D03*
Y590250D03*
Y850250D03*
Y860250D03*
X330250Y370250D03*
Y380250D03*
Y580250D03*
Y590250D03*
Y850250D03*
Y860250D03*
X350250Y480250D03*
Y520250D03*
Y690250D03*
Y730250D03*
Y840250D03*
Y850250D03*
Y860250D03*
Y940250D03*
Y980250D03*
X360250Y480250D03*
Y520250D03*
Y690250D03*
Y730250D03*
Y940250D03*
Y980250D03*
X380250Y840250D03*
Y850250D03*
Y860250D03*
X390250Y390250D03*
Y400250D03*
Y600250D03*
Y610250D03*
Y850250D03*
Y860250D03*
X430250Y390250D03*
Y400250D03*
Y600250D03*
Y610250D03*
Y850250D03*
Y860250D03*
X640250Y590250D03*
Y630250D03*
Y680250D03*
Y690250D03*
Y770250D03*
Y810250D03*
Y850250D03*
Y860250D03*
Y940250D03*
Y980250D03*
X650250Y280250D03*
Y290250D03*
Y300250D03*
Y320250D03*
Y330250D03*
Y340250D03*
Y350250D03*
Y590250D03*
Y630250D03*
Y770250D03*
Y810250D03*
Y940250D03*
Y980250D03*
X660250Y500250D03*
Y510250D03*
X670250Y680250D03*
Y690250D03*
Y850250D03*
Y860250D03*
X680250Y680250D03*
Y690250D03*
Y850250D03*
Y860250D03*
X690250Y280250D03*
Y290250D03*
Y300250D03*
Y320250D03*
Y330250D03*
Y340250D03*
Y350250D03*
X700250Y500250D03*
Y510250D03*
X720250Y580250D03*
Y620250D03*
Y680250D03*
Y690250D03*
Y850250D03*
Y860250D03*
X730250Y460250D03*
Y470250D03*
Y480250D03*
Y490250D03*
Y590250D03*
Y630250D03*
X740250Y590250D03*
Y630250D03*
Y680250D03*
Y690250D03*
Y770250D03*
Y810250D03*
Y850250D03*
Y860250D03*
Y940250D03*
Y980250D03*
X750250Y590250D03*
Y630250D03*
Y770250D03*
Y810250D03*
Y940250D03*
Y980250D03*
X760250Y480250D03*
Y490250D03*
X770250Y460250D03*
Y470250D03*
Y680250D03*
Y690250D03*
Y850250D03*
Y860250D03*
X780250Y460250D03*
Y470250D03*
Y680250D03*
Y690250D03*
Y850250D03*
Y860250D03*
X820250Y460250D03*
Y470250D03*
Y680250D03*
Y690250D03*
Y850250D03*
Y860250D03*
X840250Y590250D03*
Y630250D03*
Y680250D03*
Y690250D03*
Y770250D03*
Y810250D03*
Y850250D03*
Y860250D03*
Y940250D03*
Y980250D03*
X850250Y590250D03*
Y630250D03*
Y770250D03*
Y810250D03*
Y940250D03*
Y980250D03*
X870250Y680250D03*
Y690250D03*
Y850250D03*
Y860250D03*
X880250Y500250D03*
Y510250D03*
Y680250D03*
Y690250D03*
Y850250D03*
Y860250D03*
X920250Y500250D03*
Y510250D03*
Y680250D03*
Y690250D03*
Y850250D03*
Y860250D03*
X940250Y590250D03*
Y630250D03*
Y680250D03*
Y690250D03*
Y770250D03*
Y810250D03*
Y850250D03*
Y860250D03*
Y940250D03*
Y980250D03*
X950250Y590250D03*
Y630250D03*
Y770250D03*
Y810250D03*
Y940250D03*
Y980250D03*
X960250Y500250D03*
Y510250D03*
X970250Y680250D03*
Y690250D03*
Y850250D03*
Y860250D03*
X980250Y680250D03*
Y690250D03*
Y850250D03*
Y860250D03*
X1000250Y500250D03*
Y510250D03*
X1020250Y580250D03*
Y620250D03*
Y680250D03*
Y690250D03*
Y850250D03*
Y860250D03*
D02*
D16*
X310250Y600250D03*
X320250D03*
D02*
D22*
X45604Y445604D03*
Y655604D03*
X53478Y423163D03*
Y467258D03*
Y633163D03*
Y677258D03*
X55604Y905604D03*
X63478Y883163D03*
Y927258D03*
X80250Y480250D03*
Y690250D03*
X90250Y940250D03*
X106628Y423163D03*
Y467652D03*
Y633163D03*
Y677652D03*
X114896Y445604D03*
Y655604D03*
X116628Y883163D03*
Y927652D03*
X124896Y905604D03*
X145604Y445604D03*
Y655604D03*
X153478Y423163D03*
Y467258D03*
Y633163D03*
Y677258D03*
X155604Y905604D03*
X163478Y883163D03*
Y927258D03*
X180250Y480250D03*
Y690250D03*
X190250Y940250D03*
X206628Y423163D03*
Y467652D03*
Y633163D03*
Y677652D03*
X214896Y445604D03*
Y655604D03*
X216628Y883163D03*
Y927652D03*
X224896Y905604D03*
X255604Y445604D03*
Y655604D03*
Y905604D03*
X263478Y423163D03*
Y467258D03*
Y633163D03*
Y677258D03*
Y883163D03*
Y927258D03*
X290250Y480250D03*
Y690250D03*
Y940250D03*
X316628Y423163D03*
Y467652D03*
Y633163D03*
Y677652D03*
Y883163D03*
Y927652D03*
X324896Y445604D03*
Y655604D03*
Y905604D03*
X355604Y445604D03*
Y655604D03*
Y905604D03*
X363478Y423163D03*
Y467258D03*
Y633163D03*
Y677258D03*
Y883163D03*
Y927258D03*
X390250Y480250D03*
Y690250D03*
Y940250D03*
X416628Y423163D03*
Y467652D03*
Y633163D03*
Y677652D03*
Y883163D03*
Y927652D03*
X424896Y445604D03*
Y655604D03*
Y905604D03*
X645604Y555604D03*
Y735604D03*
Y905604D03*
X653478Y533163D03*
Y577258D03*
Y713163D03*
Y757258D03*
Y883163D03*
Y927258D03*
X680250Y590250D03*
Y770250D03*
Y940250D03*
X706628Y533163D03*
Y577652D03*
Y713163D03*
Y757652D03*
Y883163D03*
Y927652D03*
X714896Y555604D03*
Y735604D03*
Y905604D03*
X745604Y555604D03*
Y735604D03*
Y905604D03*
X753478Y533163D03*
Y577258D03*
Y713163D03*
Y757258D03*
Y883163D03*
Y927258D03*
X780250Y590250D03*
Y770250D03*
Y940250D03*
X806628Y533163D03*
Y577652D03*
Y713163D03*
Y757652D03*
Y883163D03*
Y927652D03*
X814896Y555604D03*
Y735604D03*
Y905604D03*
X845604Y555604D03*
Y735604D03*
Y905604D03*
X853478Y533163D03*
Y577258D03*
Y713163D03*
Y757258D03*
Y883163D03*
Y927258D03*
X880250Y590250D03*
Y770250D03*
Y940250D03*
X906628Y533163D03*
Y577652D03*
Y713163D03*
Y757652D03*
Y883163D03*
Y927652D03*
X914896Y555604D03*
Y735604D03*
Y905604D03*
X945604Y555604D03*
Y735604D03*
Y905604D03*
X953478Y533163D03*
Y577258D03*
Y713163D03*
Y757258D03*
Y883163D03*
Y927258D03*
X980250Y590250D03*
Y770250D03*
Y940250D03*
X1006628Y533163D03*
Y577652D03*
Y713163D03*
Y757652D03*
Y883163D03*
Y927652D03*
X1014896Y555604D03*
Y735604D03*
Y905604D03*
D02*
D23*
X60250Y220250D03*
Y260250D03*
Y290250D03*
X160250Y220250D03*
Y260250D03*
Y290250D03*
X260250Y220250D03*
Y260250D03*
Y290250D03*
X380250Y220250D03*
Y260250D03*
Y290250D03*
X800250Y220250D03*
Y260250D03*
Y290250D03*
X830250Y220250D03*
Y260250D03*
Y290250D03*
X0Y0D02*
M02*
