G04 DesignSpark PCB Gerber Version 11.0 Build 5877*
G04 #@! TF.Part,Single*
G04 #@! TF.FileFunction,Soldermask,Top*
G04 #@! TF.FilePolarity,Negative*
%FSLAX35Y35*%
%MOIN*%
G04 #@! TA.AperFunction,ComponentPad*
%ADD27C,0.07000*%
G04 #@! TA.AperFunction,WasherPad*
%ADD25C,0.07890*%
G04 #@! TA.AperFunction,ComponentPad*
%ADD72C,0.09661*%
G04 #@! TA.AperFunction,WasherPad*
%ADD24C,0.12024*%
%ADD26R,0.20685X0.12811*%
G04 #@! TD.AperFunction*
X0Y0D02*
D02*
D24*
X45604Y445604D03*
Y655604D03*
X53478Y423163D03*
Y467258D03*
Y633163D03*
Y677258D03*
X55604Y905604D03*
X63478Y883163D03*
Y927258D03*
X80250Y480250D03*
Y690250D03*
X90250Y940250D03*
X106628Y423163D03*
Y467652D03*
Y633163D03*
Y677652D03*
X114896Y445604D03*
Y655604D03*
X116628Y883163D03*
Y927652D03*
X124896Y905604D03*
X145604Y445604D03*
Y655604D03*
X153478Y423163D03*
Y467258D03*
Y633163D03*
Y677258D03*
X155604Y905604D03*
X163478Y883163D03*
Y927258D03*
X180250Y480250D03*
Y690250D03*
X190250Y940250D03*
X206628Y423163D03*
Y467652D03*
Y633163D03*
Y677652D03*
X214896Y445604D03*
Y655604D03*
X216628Y883163D03*
Y927652D03*
X224896Y905604D03*
X255604Y445604D03*
Y655604D03*
Y905604D03*
X263478Y423163D03*
Y467258D03*
Y633163D03*
Y677258D03*
Y883163D03*
Y927258D03*
X290250Y480250D03*
Y690250D03*
Y940250D03*
X316628Y423163D03*
Y467652D03*
Y633163D03*
Y677652D03*
Y883163D03*
Y927652D03*
X324896Y445604D03*
Y655604D03*
Y905604D03*
X355604Y445604D03*
Y655604D03*
Y905604D03*
X363478Y423163D03*
Y467258D03*
Y633163D03*
Y677258D03*
Y883163D03*
Y927258D03*
X390250Y480250D03*
Y690250D03*
Y940250D03*
X416628Y423163D03*
Y467652D03*
Y633163D03*
Y677652D03*
Y883163D03*
Y927652D03*
X424896Y445604D03*
Y655604D03*
Y905604D03*
X645604Y555604D03*
Y735604D03*
Y905604D03*
X653478Y533163D03*
Y577258D03*
Y713163D03*
Y757258D03*
Y883163D03*
Y927258D03*
X680250Y590250D03*
Y770250D03*
Y940250D03*
X706628Y533163D03*
Y577652D03*
Y713163D03*
Y757652D03*
Y883163D03*
Y927652D03*
X714896Y555604D03*
Y735604D03*
Y905604D03*
X745604Y555604D03*
Y735604D03*
Y905604D03*
X753478Y533163D03*
Y577258D03*
Y713163D03*
Y757258D03*
Y883163D03*
Y927258D03*
X780250Y590250D03*
Y770250D03*
Y940250D03*
X806628Y533163D03*
Y577652D03*
Y713163D03*
Y757652D03*
Y883163D03*
Y927652D03*
X814896Y555604D03*
Y735604D03*
Y905604D03*
X845604Y555604D03*
Y735604D03*
Y905604D03*
X853478Y533163D03*
Y577258D03*
Y713163D03*
Y757258D03*
Y883163D03*
Y927258D03*
X880250Y590250D03*
Y770250D03*
Y940250D03*
X906628Y533163D03*
Y577652D03*
Y713163D03*
Y757652D03*
Y883163D03*
Y927652D03*
X914896Y555604D03*
Y735604D03*
Y905604D03*
X945604Y555604D03*
Y735604D03*
Y905604D03*
X953478Y533163D03*
Y577258D03*
Y713163D03*
Y757258D03*
Y883163D03*
Y927258D03*
X980250Y590250D03*
Y770250D03*
Y940250D03*
X1006628Y533163D03*
Y577652D03*
Y713163D03*
Y757652D03*
Y883163D03*
Y927652D03*
X1014896Y555604D03*
Y735604D03*
Y905604D03*
D02*
D25*
X20250Y510250D03*
Y520250D03*
Y530250D03*
X30250Y720250D03*
Y730250D03*
Y740250D03*
X70250Y510250D03*
Y720250D03*
X80250Y520250D03*
Y730250D03*
Y970250D03*
X90250Y530250D03*
Y740250D03*
Y980250D03*
X100250Y990250D03*
X110250Y500250D03*
Y710250D03*
X120250Y960250D03*
X150250Y760250D03*
X160250Y770250D03*
X170250Y510250D03*
Y720250D03*
Y800250D03*
X180250Y500250D03*
Y710250D03*
Y970250D03*
X190250Y530250D03*
Y740250D03*
Y960250D03*
X200250Y990250D03*
X210250Y500250D03*
Y710250D03*
X220250Y960250D03*
X250250Y750250D03*
X260250Y780250D03*
X270250Y790250D03*
X280250Y510250D03*
Y720250D03*
Y970250D03*
X290250Y500250D03*
Y710250D03*
Y960250D03*
X300250Y530250D03*
Y740250D03*
Y990250D03*
X320250Y500250D03*
Y710250D03*
Y960250D03*
X380250Y510250D03*
Y720250D03*
Y970250D03*
X390250Y500250D03*
Y710250D03*
Y960250D03*
X400250Y530250D03*
Y740250D03*
Y990250D03*
X420250Y510250D03*
Y720250D03*
Y970250D03*
X450250Y170250D03*
Y350250D03*
Y460250D03*
Y560250D03*
Y1000250D03*
X460250Y170250D03*
Y180250D03*
Y280250D03*
Y320250D03*
Y790250D03*
Y1000250D03*
X470250Y170250D03*
Y190250D03*
Y290250D03*
Y330250D03*
Y800250D03*
Y1000250D03*
X480250Y170250D03*
Y200250D03*
Y300250D03*
Y340250D03*
Y810250D03*
Y1000250D03*
X490250Y170250D03*
Y240250D03*
Y340250D03*
Y370250D03*
Y380250D03*
Y430250D03*
Y540250D03*
Y760250D03*
Y1000250D03*
X500250Y170250D03*
Y550250D03*
Y750250D03*
Y1000250D03*
X510250Y170250D03*
Y350250D03*
Y360250D03*
Y500250D03*
Y780250D03*
Y1000250D03*
X520250Y170250D03*
Y650250D03*
Y770250D03*
Y1000250D03*
X530250Y170250D03*
Y330250D03*
Y450250D03*
Y1000250D03*
X540250Y170250D03*
Y580250D03*
Y680250D03*
Y1000250D03*
X550250Y170250D03*
Y590250D03*
Y850250D03*
Y1000250D03*
X560250Y170250D03*
Y240250D03*
Y470250D03*
Y570250D03*
Y1000250D03*
X570250Y170250D03*
Y320250D03*
Y820250D03*
Y860250D03*
Y1000250D03*
X580250Y170250D03*
Y530250D03*
Y640250D03*
Y740250D03*
Y820250D03*
Y990250D03*
Y1000250D03*
X590250Y170250D03*
Y310250D03*
Y520250D03*
Y730250D03*
Y980250D03*
Y1000250D03*
X600250Y170250D03*
Y250250D03*
Y630250D03*
Y810250D03*
Y980250D03*
Y1000250D03*
X610250Y170250D03*
Y510250D03*
Y720250D03*
Y970250D03*
Y1000250D03*
X620250Y170250D03*
Y620250D03*
Y800250D03*
Y970250D03*
Y1000250D03*
X630250Y660250D03*
Y830250D03*
X670250Y800250D03*
Y970250D03*
X680250Y630250D03*
Y810250D03*
Y980250D03*
X690250Y620250D03*
Y820250D03*
Y990250D03*
X710250Y610250D03*
Y790250D03*
Y960250D03*
X770250Y620250D03*
Y800250D03*
Y970250D03*
X780250Y610250D03*
Y790250D03*
Y960250D03*
X790250Y640250D03*
Y820250D03*
Y990250D03*
X810250Y610250D03*
Y790250D03*
Y960250D03*
X820250Y330250D03*
X870250Y620250D03*
Y800250D03*
Y970250D03*
X880250Y610250D03*
Y790250D03*
Y960250D03*
X890250Y640250D03*
Y820250D03*
Y990250D03*
X910250Y610250D03*
Y790250D03*
Y960250D03*
X940250Y330250D03*
X960250Y380250D03*
Y390250D03*
Y400250D03*
Y410250D03*
Y420250D03*
X970250Y800250D03*
Y970250D03*
X980250Y610250D03*
Y790250D03*
Y960250D03*
X990250Y390250D03*
Y400250D03*
Y410250D03*
Y420250D03*
Y620250D03*
Y820250D03*
Y990250D03*
X1000250Y620250D03*
X1010250Y800250D03*
Y970250D03*
X1030250Y620250D03*
Y630250D03*
Y640250D03*
Y710250D03*
Y800250D03*
Y810250D03*
Y820250D03*
Y880250D03*
D02*
D26*
X60250Y220250D03*
Y260250D03*
Y290250D03*
X160250Y220250D03*
Y260250D03*
Y290250D03*
X260250Y220250D03*
Y260250D03*
Y290250D03*
X380250Y220250D03*
Y260250D03*
Y290250D03*
X800250Y220250D03*
Y260250D03*
Y290250D03*
X830250Y220250D03*
Y260250D03*
Y290250D03*
D02*
D27*
X30250Y350250D03*
Y360250D03*
Y370250D03*
Y380250D03*
Y390250D03*
Y400250D03*
Y480250D03*
Y520250D03*
X40250Y480250D03*
Y520250D03*
Y690250D03*
Y730250D03*
X50250Y480250D03*
Y520250D03*
Y690250D03*
Y730250D03*
Y840250D03*
Y850250D03*
Y860250D03*
Y940250D03*
Y980250D03*
X60250Y380250D03*
Y390250D03*
Y400250D03*
Y940250D03*
Y980250D03*
X70250Y350250D03*
Y360250D03*
Y370250D03*
X80250Y350250D03*
Y360250D03*
Y370250D03*
Y600250D03*
Y610250D03*
Y840250D03*
Y850250D03*
Y860250D03*
X90250Y850250D03*
Y860250D03*
X120250Y350250D03*
Y360250D03*
Y370250D03*
Y600250D03*
Y610250D03*
X130250Y850250D03*
Y860250D03*
X140250Y480250D03*
Y520250D03*
Y690250D03*
Y730250D03*
X150250Y480250D03*
Y520250D03*
Y690250D03*
Y730250D03*
Y840250D03*
Y850250D03*
Y860250D03*
Y940250D03*
Y980250D03*
X160250Y940250D03*
Y980250D03*
X180250Y390250D03*
Y400250D03*
Y600250D03*
Y610250D03*
Y840250D03*
Y850250D03*
Y860250D03*
X190250Y850250D03*
Y860250D03*
X220250Y390250D03*
Y400250D03*
Y600250D03*
Y610250D03*
X230250Y850250D03*
Y860250D03*
X240250Y370250D03*
Y380250D03*
Y390250D03*
Y400250D03*
Y480250D03*
Y520250D03*
Y580250D03*
Y590250D03*
Y600250D03*
Y610250D03*
Y690250D03*
Y730250D03*
X250250Y480250D03*
Y520250D03*
Y690250D03*
Y730250D03*
Y840250D03*
Y850250D03*
Y860250D03*
Y940250D03*
Y980250D03*
X260250Y480250D03*
Y520250D03*
Y690250D03*
Y730250D03*
Y940250D03*
Y980250D03*
X270250Y390250D03*
Y400250D03*
Y600250D03*
Y610250D03*
X280250Y370250D03*
Y380250D03*
Y580250D03*
Y590250D03*
Y840250D03*
Y850250D03*
Y860250D03*
X290250Y370250D03*
Y380250D03*
Y580250D03*
Y590250D03*
Y850250D03*
Y860250D03*
X330250Y370250D03*
Y380250D03*
Y580250D03*
Y590250D03*
Y850250D03*
Y860250D03*
X350250Y480250D03*
Y520250D03*
Y690250D03*
Y730250D03*
Y840250D03*
Y850250D03*
Y860250D03*
Y940250D03*
Y980250D03*
X360250Y480250D03*
Y520250D03*
Y690250D03*
Y730250D03*
Y940250D03*
Y980250D03*
X380250Y840250D03*
Y850250D03*
Y860250D03*
X390250Y390250D03*
Y400250D03*
Y600250D03*
Y610250D03*
Y850250D03*
Y860250D03*
X430250Y390250D03*
Y400250D03*
Y600250D03*
Y610250D03*
Y850250D03*
Y860250D03*
X640250Y590250D03*
Y630250D03*
Y680250D03*
Y690250D03*
Y770250D03*
Y810250D03*
Y850250D03*
Y860250D03*
Y940250D03*
Y980250D03*
X650250Y280250D03*
Y290250D03*
Y300250D03*
Y320250D03*
Y330250D03*
Y340250D03*
Y350250D03*
Y590250D03*
Y630250D03*
Y770250D03*
Y810250D03*
Y940250D03*
Y980250D03*
X660250Y500250D03*
Y510250D03*
X670250Y680250D03*
Y690250D03*
Y850250D03*
Y860250D03*
X680250Y680250D03*
Y690250D03*
Y850250D03*
Y860250D03*
X690250Y280250D03*
Y290250D03*
Y300250D03*
Y320250D03*
Y330250D03*
Y340250D03*
Y350250D03*
X700250Y500250D03*
Y510250D03*
X720250Y580250D03*
Y620250D03*
Y680250D03*
Y690250D03*
Y850250D03*
Y860250D03*
X730250Y460250D03*
Y470250D03*
Y480250D03*
Y490250D03*
Y590250D03*
Y630250D03*
X740250Y590250D03*
Y630250D03*
Y680250D03*
Y690250D03*
Y770250D03*
Y810250D03*
Y850250D03*
Y860250D03*
Y940250D03*
Y980250D03*
X750250Y590250D03*
Y630250D03*
Y770250D03*
Y810250D03*
Y940250D03*
Y980250D03*
X760250Y480250D03*
Y490250D03*
X770250Y460250D03*
Y470250D03*
Y680250D03*
Y690250D03*
Y850250D03*
Y860250D03*
X780250Y460250D03*
Y470250D03*
Y680250D03*
Y690250D03*
Y850250D03*
Y860250D03*
X820250Y460250D03*
Y470250D03*
Y680250D03*
Y690250D03*
Y850250D03*
Y860250D03*
X840250Y590250D03*
Y630250D03*
Y680250D03*
Y690250D03*
Y770250D03*
Y810250D03*
Y850250D03*
Y860250D03*
Y940250D03*
Y980250D03*
X850250Y590250D03*
Y630250D03*
Y770250D03*
Y810250D03*
Y940250D03*
Y980250D03*
X870250Y680250D03*
Y690250D03*
Y850250D03*
Y860250D03*
X880250Y500250D03*
Y510250D03*
Y680250D03*
Y690250D03*
Y850250D03*
Y860250D03*
X920250Y500250D03*
Y510250D03*
Y680250D03*
Y690250D03*
Y850250D03*
Y860250D03*
X940250Y590250D03*
Y630250D03*
Y680250D03*
Y690250D03*
Y770250D03*
Y810250D03*
Y850250D03*
Y860250D03*
Y940250D03*
Y980250D03*
X950250Y590250D03*
Y630250D03*
Y770250D03*
Y810250D03*
Y940250D03*
Y980250D03*
X960250Y500250D03*
Y510250D03*
X970250Y680250D03*
Y690250D03*
Y850250D03*
Y860250D03*
X980250Y680250D03*
Y690250D03*
Y850250D03*
Y860250D03*
X1000250Y500250D03*
Y510250D03*
X1020250Y580250D03*
Y620250D03*
Y680250D03*
Y690250D03*
Y850250D03*
Y860250D03*
D02*
D72*
X310250Y600250D03*
X320250D03*
X0Y0D02*
M02*
